<?xml version="1.0" encoding="utf-8"?>
<!-- Generator: Adobe Illustrator 16.0.0, SVG Export Plug-In . SVG Version: 6.00 Build 0)  -->
<!DOCTYPE svg PUBLIC "-//W3C//DTD SVG 1.1//EN" "http://www.w3.org/Graphics/SVG/1.1/DTD/svg11.dtd">
<svg version="1.1" id="Layer_1" xmlns="http://www.w3.org/2000/svg" xmlns:xlink="http://www.w3.org/1999/xlink" x="0px" y="0px"
	 width="198.52px" height="198.521px" viewBox="0 0 198.52 198.521" enable-background="new 0 0 198.52 198.521"
	 xml:space="preserve">
<g>
	<circle fill="#FFD555" cx="99.26" cy="99.26" r="99.26"/>
</g>
<g>
	<g>
		<path fill="#FFFFFF" d="M88.104,52.49c-0.142,0-0.286-0.013-0.431-0.04c-4.54-0.842-7.785-2.697-9.644-5.512
			c-2.219-3.361-1.547-6.739-1.463-7.113c0.284-1.265,1.542-2.054,2.804-1.777c1.257,0.282,2.05,1.521,1.783,2.778
			c-0.022,0.121-0.327,1.88,0.835,3.587c1.142,1.677,3.343,2.828,6.541,3.421c1.274,0.236,2.116,1.461,1.88,2.736
			C90.201,51.701,89.214,52.49,88.104,52.49z"/>
	</g>
	<g>
		<path fill="#FFFFFF" d="M110.17,52.49c-1.109,0-2.097-0.79-2.306-1.92c-0.236-1.275,0.605-2.5,1.88-2.736
			c3.2-0.593,5.401-1.744,6.543-3.421c1.178-1.731,0.848-3.516,0.833-3.591c-0.245-1.26,0.563-2.5,1.819-2.764
			c1.259-0.263,2.487,0.513,2.769,1.767c0.084,0.374,0.757,3.752-1.462,7.113c-1.858,2.816-5.104,4.671-9.646,5.513
			C110.456,52.478,110.312,52.49,110.17,52.49z"/>
	</g>
	<g>
		<path fill="#FFFFFF" d="M85.974,62.414c-0.007,0-0.014,0-0.021,0c-1.295-0.011-2.337-1.067-2.327-2.363
			c0.003-0.45,0.146-11.073,6.025-16.702c2.511-2.404,5.638-3.544,9.318-3.422c1.295,0.047,2.308,1.135,2.261,2.431
			c-0.046,1.267-1.088,2.262-2.345,2.262c-0.028,0-0.058,0-0.087-0.001c-2.382-0.08-4.313,0.605-5.892,2.114
			c-4.445,4.244-4.586,13.265-4.587,13.355C88.308,61.376,87.26,62.414,85.974,62.414z"/>
	</g>
	<g>
		<path fill="#FFFFFF" d="M112.207,62.416c-1.287,0-2.336-1.038-2.347-2.327l0,0c-0.001-0.09-0.143-9.112-4.588-13.356
			c-1.58-1.509-3.518-2.195-5.891-2.113c-1.316,0.056-2.386-0.966-2.432-2.261c-0.047-1.296,0.965-2.384,2.261-2.431
			c3.688-0.123,6.806,1.018,9.316,3.421c5.88,5.628,6.024,16.253,6.027,16.702c0.01,1.297-1.033,2.355-2.33,2.365
			C112.219,62.416,112.213,62.416,112.207,62.416z"/>
	</g>
	<g>
		<path fill="#FFFFFF" d="M99.35,157.801c-1.094,0-2.073-0.77-2.299-1.883c-0.257-1.271,0.565-2.51,1.836-2.767
			c14.117-2.854,23.942-9.253,29.202-19.019c10.306-19.132-0.02-45.265-0.125-45.526l-0.113-0.283l-0.039-0.304
			c-2.385-19.051-14.14-23.856-16.154-24.544H85.954c-1.296,0-2.347-1.051-2.347-2.348c0-1.296,1.051-2.347,2.347-2.347h26.382
			l0.307,0.084c0.685,0.189,16.73,4.878,19.79,28.274c1.239,3.195,10.656,29.018-0.198,49.2
			c-5.95,11.063-16.857,18.269-32.417,21.415C99.66,157.785,99.504,157.801,99.35,157.801z"/>
	</g>
	<g>
		<path fill="#FFFFFF" d="M98.417,157.801c-0.154,0-0.311-0.016-0.468-0.047c-15.559-3.146-26.465-10.352-32.415-21.415
			c-10.854-20.182-1.438-46.005-0.198-49.2c3.058-23.396,19.105-28.085,19.79-28.274l0.307-0.084h26.377
			c1.297,0,2.348,1.051,2.348,2.347c0,1.297-1.051,2.348-2.348,2.348H86.11c-1.981,0.675-13.767,5.466-16.153,24.543l-0.038,0.303
			l-0.114,0.285c-0.105,0.262-10.431,26.395-0.126,45.527c5.26,9.765,15.085,16.163,29.201,19.018
			c1.271,0.257,2.093,1.496,1.836,2.767C100.49,157.031,99.511,157.801,98.417,157.801z"/>
	</g>
	<g>
		<path fill="#FFFFFF" d="M45.976,105.354c-1.296,0-2.347-1.051-2.347-2.347c0-5.707,1.835-10.172,5.457-13.273
			c7.098-6.08,18.424-4.4,18.903-4.326c1.281,0.199,2.158,1.399,1.959,2.681c-0.2,1.28-1.395,2.161-2.679,1.959
			c-0.182-0.025-9.723-1.392-15.142,3.264c-2.559,2.199-3.803,5.37-3.803,9.696C48.324,104.303,47.273,105.354,45.976,105.354z"/>
	</g>
	<g>
		<path fill="#FFFFFF" d="M152.616,105.354c-1.297,0-2.348-1.051-2.348-2.347c0-4.326-1.244-7.497-3.803-9.696
			c-5.443-4.677-15.047-3.276-15.144-3.264c-1.26,0.207-2.479-0.683-2.676-1.963c-0.196-1.28,0.678-2.477,1.958-2.676
			c0.48-0.073,11.803-1.753,18.902,4.326c3.621,3.101,5.456,7.566,5.456,13.273C154.963,104.303,153.912,105.354,152.616,105.354z"
			/>
	</g>
	<g>
		<path fill="#FFFFFF" d="M135.027,89.837H69.806c-1.296,0-2.347-1.051-2.347-2.347c0-1.297,1.051-2.348,2.347-2.348h65.222
			c1.296,0,2.347,1.051,2.347,2.348C137.374,88.787,136.323,89.837,135.027,89.837z"/>
	</g>
	<g>
		<path fill="#FFFFFF" d="M44.39,160.528c-1.297,0-2.348-1.051-2.348-2.347c0-15.198,3.338-25.596,9.923-30.906
			c5.903-4.759,12.158-3.472,12.421-3.416c1.267,0.274,2.071,1.524,1.797,2.792c-0.273,1.261-1.508,2.07-2.775,1.8
			c-0.21-0.041-4.47-0.824-8.579,2.548c-5.293,4.343-8.091,13.742-8.091,27.183C46.737,159.478,45.686,160.528,44.39,160.528z"/>
	</g>
	<g>
		<path fill="#FFFFFF" d="M154.13,160.528c-1.297,0-2.348-1.051-2.348-2.348c0-12.547-2.676-21.625-7.738-26.252
			c-3.92-3.583-8.106-3.509-9.302-3.404c-1.237,0.106-2.412-0.756-2.597-1.982c-0.187-1.229,0.694-2.406,1.909-2.666
			c0.192-0.041,0.397-0.053,0.575-0.051c2.043-0.122,7.548,0.038,12.581,4.638c6.148,5.619,9.266,15.618,9.266,29.718
			C156.477,159.478,155.426,160.528,154.13,160.528z"/>
	</g>
	<g>
		<path fill="#FFFFFF" d="M99.297,157.51c-1.297,0-2.348-1.051-2.348-2.347V88.114c0-1.296,1.051-2.347,2.348-2.347
			c1.296,0,2.347,1.051,2.347,2.347v67.049C101.644,156.459,100.593,157.51,99.297,157.51z"/>
	</g>
</g>
</svg>
