<?xml version="1.0" encoding="utf-8"?>
<!-- Generator: Adobe Illustrator 16.0.0, SVG Export Plug-In . SVG Version: 6.00 Build 0)  -->
<!DOCTYPE svg PUBLIC "-//W3C//DTD SVG 1.1//EN" "http://www.w3.org/Graphics/SVG/1.1/DTD/svg11.dtd">
<svg version="1.1" id="Layer_1" xmlns="http://www.w3.org/2000/svg" xmlns:xlink="http://www.w3.org/1999/xlink" x="0px" y="0px"
	 width="198.521px" height="198.521px" viewBox="0 0 198.521 198.521" enable-background="new 0 0 198.521 198.521"
	 xml:space="preserve">
<g>
	<circle fill="#FFD555" cx="99.26" cy="99.26" r="99.26"/>
</g>
<g>
	<g>
		<path fill="#FFFFFF" d="M70.008,154.126c-0.39,0-0.785-0.092-1.153-0.287c-1.207-0.638-1.668-2.134-1.03-3.341L123.222,45.71
			c0.639-1.206,2.135-1.666,3.341-1.03c1.207,0.638,1.668,2.134,1.03,3.341L72.195,152.81
			C71.752,153.647,70.895,154.126,70.008,154.126z"/>
	</g>
	<g>
		<path fill="#FFFFFF" d="M31.779,104.553c-0.738,0-1.473-0.307-1.997-0.906c-0.963-1.102-0.851-2.775,0.251-3.739l34.565-30.212
			c1.103-0.962,2.776-0.851,3.739,0.251s0.851,2.776-0.251,3.739l-34.565,30.213C33.019,104.337,32.397,104.553,31.779,104.553z"/>
	</g>
	<g>
		<path fill="#FFFFFF" d="M68.627,131.94c-0.528,0-1.061-0.157-1.525-0.484L29.59,104.991c-1.196-0.844-1.481-2.497-0.638-3.693
			c0.844-1.196,2.499-1.479,3.693-0.638l37.512,26.465c1.196,0.844,1.481,2.497,0.638,3.693
			C70.278,131.55,69.459,131.94,68.627,131.94z"/>
	</g>
	<g>
		<path fill="#FFFFFF" d="M166.741,104.553c-0.619,0-1.24-0.216-1.743-0.654l-34.565-30.213c-1.102-0.963-1.214-2.637-0.251-3.739
			c0.963-1.102,2.639-1.213,3.739-0.251l34.565,30.212c1.102,0.964,1.214,2.638,0.251,3.739
			C168.214,104.246,167.479,104.553,166.741,104.553z"/>
	</g>
	<g>
		<path fill="#FFFFFF" d="M129.893,131.94c-0.832,0-1.651-0.391-2.167-1.122c-0.844-1.196-0.558-2.85,0.638-3.693l37.512-26.465
			c1.197-0.842,2.849-0.559,3.693,0.638s0.558,2.85-0.638,3.693l-37.512,26.465C130.954,131.783,130.421,131.94,129.893,131.94z"/>
	</g>
</g>
</svg>
