<?xml version="1.0" encoding="utf-8"?>
<!-- Generator: Adobe Illustrator 16.0.0, SVG Export Plug-In . SVG Version: 6.00 Build 0)  -->
<!DOCTYPE svg PUBLIC "-//W3C//DTD SVG 1.1//EN" "http://www.w3.org/Graphics/SVG/1.1/DTD/svg11.dtd">
<svg version="1.1" id="Layer_1" xmlns="http://www.w3.org/2000/svg" xmlns:xlink="http://www.w3.org/1999/xlink" x="0px" y="0px"
	 width="198.52px" height="198.521px" viewBox="0 0 198.52 198.521" enable-background="new 0 0 198.52 198.521"
	 xml:space="preserve">
<g>
	<g>
		<circle fill="#FFD555" cx="99.26" cy="99.26" r="99.26"/>
	</g>
	<g>
		<rect x="56.099" y="115.293" fill="#FFFFFF" width="45.43" height="42.693"/>
		<path fill="#FFFFFF" d="M101.529,160.372h-45.43c-1.317,0-2.386-1.068-2.386-2.386v-42.694c0-1.317,1.068-2.386,2.386-2.386h45.43
			c1.317,0,2.386,1.068,2.386,2.386v42.694C103.915,159.304,102.846,160.372,101.529,160.372z M58.485,155.6h40.657v-37.921H58.485
			V155.6z"/>
	</g>
	<g>
		<rect x="45.722" y="56.937" fill="#FFFFFF" width="45.431" height="42.692"/>
		<path fill="#FFFFFF" d="M93.539,102.015H43.336V54.55h50.203V102.015z M48.108,97.243h40.658v-37.92H48.108V97.243z"/>
	</g>
	<g>
		<rect x="101.596" y="40.206" fill="#FFFFFF" width="45.431" height="42.693"/>
		<path fill="#FFFFFF" d="M149.413,85.285H99.209V37.82h50.203V85.285z M103.982,80.513h40.658V42.592h-40.658V80.513z"/>
	</g>
	<g>
		<rect x="114.563" y="96.84" fill="#FFFFFF" width="45.431" height="42.691"/>
		<path fill="#FFFFFF" d="M162.379,141.917h-50.203V94.454h50.203V141.917z M116.949,137.145h40.658V99.226h-40.658V137.145z"/>
	</g>
</g>
</svg>
