<svg height='100px' width='100px'  fill="#000000" xmlns="http://www.w3.org/2000/svg" xmlns:xlink="http://www.w3.org/1999/xlink" version="1.1" x="0px" y="0px" viewBox="0 0 100 100" enable-background="new 0 0 100 100" xml:space="preserve"><g display="none"><g display="inline"><line fill="#000000" stroke="#000000" stroke-miterlimit="10" x1="0" y1="0" x2="0" y2="100"></line><line fill="#000000" stroke="#000000" stroke-miterlimit="10" x1="5" y1="0" x2="5" y2="100"></line><line fill="#000000" stroke="#000000" stroke-miterlimit="10" x1="10" y1="0" x2="10" y2="100"></line><line fill="#000000" stroke="#000000" stroke-miterlimit="10" x1="15" y1="0" x2="15" y2="100"></line><line fill="#000000" stroke="#000000" stroke-miterlimit="10" x1="20" y1="0" x2="20" y2="100"></line><line fill="#000000" stroke="#000000" stroke-miterlimit="10" x1="25" y1="0" x2="25" y2="100"></line><line fill="#000000" stroke="#000000" stroke-miterlimit="10" x1="30" y1="0" x2="30" y2="100"></line><line fill="#000000" stroke="#000000" stroke-miterlimit="10" x1="35" y1="0" x2="35" y2="100"></line><line fill="#000000" stroke="#000000" stroke-miterlimit="10" x1="40" y1="0" x2="40" y2="100"></line><line fill="#000000" stroke="#000000" stroke-miterlimit="10" x1="45" y1="0" x2="45" y2="100"></line><line fill="#000000" stroke="#000000" stroke-miterlimit="10" x1="50" y1="0" x2="50" y2="100"></line><line fill="#000000" stroke="#000000" stroke-miterlimit="10" x1="55" y1="0" x2="55" y2="100"></line><line fill="#000000" stroke="#000000" stroke-miterlimit="10" x1="60" y1="0" x2="60" y2="100"></line><line fill="#000000" stroke="#000000" stroke-miterlimit="10" x1="65" y1="0" x2="65" y2="100"></line><line fill="#000000" stroke="#000000" stroke-miterlimit="10" x1="70" y1="0" x2="70" y2="100"></line><line fill="#000000" stroke="#000000" stroke-miterlimit="10" x1="75" y1="0" x2="75" y2="100"></line><line fill="#000000" stroke="#000000" stroke-miterlimit="10" x1="80" y1="0" x2="80" y2="100"></line><line fill="#000000" stroke="#000000" stroke-miterlimit="10" x1="85" y1="0" x2="85" y2="100"></line><line fill="#000000" stroke="#000000" stroke-miterlimit="10" x1="90" y1="0" x2="90" y2="100"></line><line fill="#000000" stroke="#000000" stroke-miterlimit="10" x1="95" y1="0" x2="95" y2="100"></line><line fill="#000000" stroke="#000000" stroke-miterlimit="10" x1="100" y1="0" x2="100" y2="100"></line></g><g display="inline"><line fill="#000000" stroke="#000000" stroke-miterlimit="10" x1="100" y1="0" x2="0" y2="0"></line><line fill="#000000" stroke="#000000" stroke-miterlimit="10" x1="100" y1="5" x2="0" y2="5"></line><line fill="#000000" stroke="#000000" stroke-miterlimit="10" x1="100" y1="10" x2="0" y2="10"></line><line fill="#000000" stroke="#000000" stroke-miterlimit="10" x1="100" y1="15" x2="0" y2="15"></line><line fill="#000000" stroke="#000000" stroke-miterlimit="10" x1="100" y1="20" x2="0" y2="20"></line><line fill="#000000" stroke="#000000" stroke-miterlimit="10" x1="100" y1="25" x2="0" y2="25"></line><line fill="#000000" stroke="#000000" stroke-miterlimit="10" x1="100" y1="30" x2="0" y2="30"></line><line fill="#000000" stroke="#000000" stroke-miterlimit="10" x1="100" y1="35" x2="0" y2="35"></line><line fill="#000000" stroke="#000000" stroke-miterlimit="10" x1="100" y1="40" x2="0" y2="40"></line><line fill="#000000" stroke="#000000" stroke-miterlimit="10" x1="100" y1="45" x2="0" y2="45"></line><line fill="#000000" stroke="#000000" stroke-miterlimit="10" x1="100" y1="50" x2="0" y2="50"></line><line fill="#000000" stroke="#000000" stroke-miterlimit="10" x1="100" y1="55" x2="0" y2="55"></line><line fill="#000000" stroke="#000000" stroke-miterlimit="10" x1="100" y1="60" x2="0" y2="60"></line><line fill="#000000" stroke="#000000" stroke-miterlimit="10" x1="100" y1="65" x2="0" y2="65"></line><line fill="#000000" stroke="#000000" stroke-miterlimit="10" x1="100" y1="70" x2="0" y2="70"></line><line fill="#000000" stroke="#000000" stroke-miterlimit="10" x1="100" y1="75" x2="0" y2="75"></line><line fill="#000000" stroke="#000000" stroke-miterlimit="10" x1="100" y1="80" x2="0" y2="80"></line><line fill="#000000" stroke="#000000" stroke-miterlimit="10" x1="100" y1="85" x2="0" y2="85"></line><line fill="#000000" stroke="#000000" stroke-miterlimit="10" x1="100" y1="90" x2="0" y2="90"></line><line fill="#000000" stroke="#000000" stroke-miterlimit="10" x1="100" y1="95" x2="0" y2="95"></line><line fill="#000000" stroke="#000000" stroke-miterlimit="10" x1="100" y1="100" x2="0" y2="100"></line></g></g><g display="none"><path display="inline" fill="none" stroke="#000000" stroke-width="3" stroke-linecap="round" stroke-miterlimit="10" d="   M65,15.381c2.761,0,5,2.238,5,5V45.38c0,2.763-2.238,5.001-5,5.001H14.999c-2.761,0-4.999-2.239-4.999-5v-25c0-2.761,2.238-5,5-5   H65z"></path><path display="inline" fill="none" stroke="#000000" stroke-width="3" stroke-linecap="round" stroke-linejoin="round" stroke-miterlimit="10" d="   M20,20.381c0,2.762-2.238,5-5,5v15c2.762-0.001,5,2.238,4.999,4.999H60c0-2.761,2.238-4.999,5-5l-0.001-14.999   c-2.761,0-4.999-2.238-4.999-5H20z"></path><circle display="inline" fill="none" stroke="#000000" stroke-width="3" stroke-linecap="round" stroke-miterlimit="10" cx="40" cy="32.881" r="10"></circle><g display="inline"><path d="M39.465,39.865c-2.342-0.078-4.258-1.287-4.258-2.535c0-0.666,0.589-1.641,1.328-1.641c0.822,0,1.483,1.148,2.93,1.406    v-3.164c-1.797-0.68-3.904-1.52-3.904-4.018c0-2.482,1.833-3.669,3.904-3.958v-0.548c0-0.275,0.313-0.527,0.741-0.527    c0.37,0,0.742,0.251,0.742,0.527v0.486c1.208,0.038,3.491,0.351,3.491,1.699c0,0.523-0.35,1.6-1.209,1.6    c-0.646,0-1.016-0.627-2.282-0.723v2.848c1.773,0.664,3.845,1.578,3.845,4.215c-0.001,2.422-1.563,3.881-3.845,4.254v0.564    c0,0.275-0.372,0.529-0.742,0.529c-0.429,0-0.741-0.254-0.741-0.527V39.865z M39.659,30.852v-2.326    c-0.878,0.18-1.25,0.625-1.25,1.092C38.409,30.189,38.918,30.537,39.659,30.852z M40.75,34.459v2.619    c0.667-0.158,1.19-0.529,1.19-1.232C41.94,35.203,41.453,34.795,40.75,34.459z"></path></g><path display="inline" fill="none" stroke="#000000" stroke-width="3" stroke-linecap="round" stroke-miterlimit="10" d="M75,55   c2.762,0,5,2.238,5,5v35c0,2.762-2.238,5-5,5H15c-2.762,0-5-2.238-5-5V60c0-2.762,2.238-5,5-5H75z"></path><path display="inline" fill="none" stroke="#000000" stroke-width="3" stroke-linecap="round" stroke-linejoin="round" stroke-miterlimit="10" d="   M20,60c0,2.762-2.238,5-5,5v25c2.762,0,5,2.238,5,5h50c0-2.762,2.238-5,5-5V65c-2.762,0-5-2.238-5-5H20z"></path><circle display="inline" fill="none" stroke="#000000" stroke-width="3" stroke-linecap="round" stroke-miterlimit="10" cx="45" cy="77.5" r="12.5"></circle><g display="inline"><path d="M44.332,86.231c-2.929-0.096-5.323-1.607-5.323-3.169c0-0.832,0.736-2.05,1.66-2.05c1.027,0,1.854,1.436,3.663,1.758    v-3.955c-2.246-0.851-4.882-1.901-4.882-5.023c0-3.102,2.292-4.586,4.882-4.948v-0.685c0-0.344,0.39-0.659,0.925-0.659    c0.463,0,0.928,0.315,0.928,0.659v0.609c1.512,0.047,4.365,0.438,4.365,2.125c0,0.653-0.438,1.997-1.512,1.997    c-0.809,0-1.269-0.782-2.854-0.902v3.56c2.218,0.832,4.807,1.975,4.807,5.27c0,3.026-1.953,4.851-4.807,5.318v0.705    c0,0.344-0.465,0.659-0.928,0.659c-0.535,0-0.925-0.315-0.925-0.659V86.231z M44.573,74.964v-2.906    c-1.097,0.224-1.562,0.781-1.562,1.365C43.012,74.137,43.647,74.573,44.573,74.964z M45.938,79.476v3.271    c0.832-0.195,1.487-0.661,1.487-1.539C47.426,80.405,46.817,79.896,45.938,79.476z"></path></g></g><g display="none"><g display="inline"><path fill="none" stroke="#000000" stroke-width="2" stroke-linecap="round" stroke-miterlimit="10" d="M10.684,15.662"></path><polyline fill="none" stroke="#000000" stroke-width="3" stroke-linecap="round" stroke-miterlimit="10" points="15.684,76.662     15.684,20.662 76.684,20.662   "></polyline><circle cx="28.184" cy="33.162" r="3.75"></circle><g><path fill="none" stroke="#000000" stroke-width="2" stroke-linecap="round" stroke-linejoin="round" stroke-miterlimit="10" d="     M27.02,62.162c0,0.368,1.045,1,2.332,1c1.289,0,2.334-0.632,2.334-1"></path><path fill="none" stroke="#000000" stroke-width="2" stroke-linecap="round" stroke-linejoin="round" stroke-miterlimit="10" d="     M22.354,62.162c0,0.368,1.047,1,2.332,1c1.287,0,2.334-0.632,2.334-1"></path></g><g><path fill="none" stroke="#000000" stroke-width="2" stroke-linecap="round" stroke-linejoin="round" stroke-miterlimit="10" d="     M24.02,67.162c0,0.368,1.045,1,2.332,1c1.289,0,2.334-0.632,2.334-1"></path><path fill="none" stroke="#000000" stroke-width="2" stroke-linecap="round" stroke-linejoin="round" stroke-miterlimit="10" d="     M19.354,67.162c0,0.368,1.047,1,2.332,1c1.287,0,2.334-0.632,2.334-1"></path></g><polyline fill="none" stroke="#000000" stroke-width="3" stroke-linecap="round" stroke-miterlimit="10" points="8.184,81.162     8.184,13.162 85.184,13.162   "></polyline><polyline fill="none" stroke="#000000" stroke-width="3" stroke-linecap="round" stroke-linejoin="round" stroke-miterlimit="10" points="    43.896,45.062 48.684,36.018 53.656,45.409   "></polyline><polyline fill="none" stroke="#000000" stroke-width="3" stroke-linecap="round" stroke-linejoin="round" stroke-miterlimit="10" points="    34.891,49.571 40.695,39.518 48.639,53.274   "></polyline><polyline fill="none" stroke="#000000" stroke-width="3" stroke-linecap="round" stroke-linejoin="round" stroke-miterlimit="10" points="    15.754,51.664 26.332,51.664 32.26,45.018 39.191,57.018   "></polyline><line fill="#000000" stroke="#000000" stroke-width="3" stroke-linecap="round" stroke-linejoin="round" stroke-miterlimit="10" x1="16.246" y1="57.018" x2="45.684" y2="57.018"></line><g><line fill="none" stroke="#000000" stroke-width="2" stroke-linecap="round" stroke-linejoin="round" stroke-miterlimit="10" x1="43.184" y1="34.162" x2="40.684" y2="31.662"></line><line fill="none" stroke="#000000" stroke-width="2" stroke-linecap="round" stroke-linejoin="round" stroke-miterlimit="10" x1="43.184" y1="34.162" x2="45.684" y2="31.662"></line></g><g><line fill="none" stroke="#000000" stroke-width="2" stroke-linecap="round" stroke-linejoin="round" stroke-miterlimit="10" x1="51.184" y1="30.162" x2="48.684" y2="27.662"></line><line fill="none" stroke="#000000" stroke-width="2" stroke-linecap="round" stroke-linejoin="round" stroke-miterlimit="10" x1="51.184" y1="30.162" x2="53.684" y2="27.662"></line></g><g><g><line fill="none" stroke="#000000" stroke-width="2" stroke-linecap="round" stroke-linejoin="round" stroke-miterlimit="10" x1="32.414" y1="28.947" x2="33.829" y2="27.534"></line></g><g><line fill="none" stroke="#000000" stroke-width="2" stroke-linecap="round" stroke-linejoin="round" stroke-miterlimit="10" x1="34.122" y1="33.24" x2="36.122" y2="33.241"></line></g><g><line fill="none" stroke="#000000" stroke-width="2" stroke-linecap="round" stroke-linejoin="round" stroke-miterlimit="10" x1="32.294" y1="37.483" x2="33.708" y2="38.898"></line></g><g><line fill="none" stroke="#000000" stroke-width="2" stroke-linecap="round" stroke-linejoin="round" stroke-miterlimit="10" x1="28.001" y1="39.191" x2="28.001" y2="41.191"></line></g><g><line fill="none" stroke="#000000" stroke-width="2" stroke-linecap="round" stroke-linejoin="round" stroke-miterlimit="10" x1="23.758" y1="37.363" x2="22.344" y2="38.777"></line></g><g><line fill="none" stroke="#000000" stroke-width="2" stroke-linecap="round" stroke-linejoin="round" stroke-miterlimit="10" x1="22.051" y1="33.07" x2="20.051" y2="33.07"></line></g><g><line fill="none" stroke="#000000" stroke-width="2" stroke-linecap="round" stroke-linejoin="round" stroke-miterlimit="10" x1="23.879" y1="28.827" x2="22.465" y2="27.413"></line></g><g><line fill="none" stroke="#000000" stroke-width="2" stroke-linecap="round" stroke-linejoin="round" stroke-miterlimit="10" x1="28.172" y1="27.12" x2="28.172" y2="25.12"></line></g></g><g><path fill="#000000" stroke="#000000" stroke-width="3" stroke-linecap="round" stroke-miterlimit="10" d="M43.895,54.014     l39.387-39.388c1.953-1.952,5.117-1.952,7.07,0l0,0c1.951,1.952,1.953,5.118,0,7.071L50.965,61.084L43.895,54.014z"></path><rect x="34.626" y="57.852" transform="matrix(-0.7072 0.707 -0.707 -0.7072 116.3539 77.5162)" fill="#000000" stroke="#000000" stroke-width="3" stroke-linecap="round" stroke-miterlimit="10" width="14.999" height="9.999"></rect><path fill="#000000" stroke="#000000" stroke-width="3" stroke-linecap="round" stroke-linejoin="round" stroke-miterlimit="10" d="     M34.348,81.236C21.952,93.632,8.246,81.591,8.246,81.591s5.385-0.85,15.496-10.96c5.858-5.858,10.152-5.405,13.08-2.477     C39.752,71.084,40.205,75.379,34.348,81.236z"></path></g></g></g><g><path d="M31.934,33.162c0,2.069-1.68,3.75-3.75,3.75c-2.068,0-3.75-1.681-3.75-3.75s1.682-3.75,3.75-3.75   C30.254,29.412,31.934,31.093,31.934,33.162z M31.686,61.162c-0.422,0-0.783,0.262-0.93,0.632   c-0.192,0.132-0.711,0.368-1.404,0.368c-0.691,0-1.21-0.236-1.402-0.368c-0.002-0.004-0.005-0.007-0.006-0.011   c-0.008-0.02-0.022-0.035-0.032-0.055c-0.042-0.086-0.094-0.165-0.158-0.235c-0.025-0.027-0.053-0.05-0.081-0.075   c-0.062-0.055-0.13-0.1-0.204-0.138c-0.032-0.017-0.062-0.034-0.096-0.047c-0.11-0.042-0.228-0.071-0.353-0.071   s-0.241,0.029-0.352,0.071c-0.035,0.013-0.064,0.03-0.098,0.047c-0.073,0.038-0.141,0.083-0.202,0.137   c-0.029,0.025-0.057,0.049-0.082,0.077c-0.064,0.07-0.116,0.148-0.158,0.234c-0.01,0.02-0.023,0.035-0.032,0.055   c-0.001,0.004-0.004,0.007-0.006,0.011c-0.192,0.132-0.712,0.368-1.404,0.368c-0.691,0-1.21-0.236-1.402-0.368   c-0.146-0.37-0.508-0.632-0.93-0.632c-0.553,0-1,0.447-1,1c0,1.196,1.723,2,3.332,2c0.834,0,1.694-0.219,2.334-0.594   c0.639,0.375,1.498,0.594,2.332,0.594c1.61,0,3.334-0.804,3.334-2C32.686,61.609,32.238,61.162,31.686,61.162z M57.896,30.955   c-0.391-0.391-1.023-0.391-1.414,0l-1.793,1.793l-1.793-1.793c-0.391-0.391-1.023-0.391-1.414,0s-0.391,1.023,0,1.414l2.5,2.5   c0.195,0.195,0.451,0.293,0.707,0.293s0.512-0.098,0.707-0.293l2.5-2.5C58.286,31.979,58.286,31.346,57.896,30.955z M46.481,26.955   l-1.793,1.793l-1.793-1.793c-0.391-0.391-1.023-0.391-1.414,0s-0.391,1.023,0,1.414l2.5,2.5c0.195,0.195,0.451,0.293,0.707,0.293   s0.512-0.098,0.707-0.293l2.5-2.5c0.391-0.391,0.391-1.023,0-1.414S46.872,26.564,46.481,26.955z M32.414,29.947   c0.256,0,0.512-0.098,0.707-0.292l1.415-1.413c0.391-0.391,0.391-1.023,0.001-1.415c-0.391-0.391-1.024-0.39-1.415-0.001   l-1.415,1.413c-0.391,0.391-0.391,1.023-0.001,1.415C31.901,29.85,32.158,29.947,32.414,29.947z M36.123,32.241l-2-0.001   c-0.001,0-0.001,0-0.001,0c-0.552,0-1,0.447-1,0.999c0,0.553,0.447,1.001,0.999,1.001l2,0.001c0.001,0,0.001,0,0.001,0   c0.552,0,1-0.447,1-1C37.122,32.689,36.675,32.241,36.123,32.241z M33.001,36.776c-0.391-0.391-1.023-0.391-1.414,0   c-0.391,0.39-0.391,1.023,0,1.414l1.414,1.415c0.195,0.195,0.451,0.293,0.707,0.293s0.512-0.098,0.707-0.293   c0.391-0.39,0.391-1.023,0-1.414L33.001,36.776z M28.001,38.191c-0.553,0-1,0.447-1,1v2c0,0.553,0.447,1,1,1s1-0.447,1-1v-2   C29.001,38.639,28.554,38.191,28.001,38.191z M23.051,36.656l-1.414,1.414c-0.391,0.391-0.391,1.023,0,1.414   c0.195,0.195,0.451,0.293,0.707,0.293s0.512-0.098,0.707-0.293l1.414-1.414c0.391-0.391,0.391-1.023,0-1.414   S23.441,36.266,23.051,36.656z M23.051,33.07c0-0.553-0.447-1-1-1h-2c-0.553,0-1,0.447-1,1s0.447,1,1,1h2   C22.604,34.07,23.051,33.623,23.051,33.07z M23.172,26.706c-0.391-0.391-1.023-0.391-1.414,0s-0.391,1.023,0,1.414l1.414,1.414   c0.195,0.195,0.451,0.293,0.707,0.293s0.512-0.098,0.707-0.293c0.391-0.391,0.391-1.023,0-1.414L23.172,26.706z M28.172,24.12   c-0.553,0-1,0.447-1,1v2c0,0.553,0.447,1,1,1s1-0.447,1-1v-2C29.172,24.567,28.725,24.12,28.172,24.12z M91.412,22.758   L53.086,61.084L40.363,73.808c-0.322,2.666-1.987,5.522-4.955,8.489c-4.009,4.009-8.572,6.042-13.562,6.042   c-8.1,0-14.329-5.392-14.591-5.621c-0.332-0.292-0.511-0.711-0.507-1.142c-0.038-0.132-0.065-0.27-0.065-0.414v-69.5h78.5   c0.186,0,0.361,0.038,0.525,0.1c0.362-0.062,0.731-0.1,1.107-0.1c1.735,0,3.367,0.676,4.596,1.903   C93.946,16.101,93.946,20.225,91.412,22.758z M9.684,14.662v64.834c1.037-0.466,2.551-1.278,4.519-2.653   c-0.008-0.06-0.019-0.119-0.019-0.181v-57.5h62.44l4.5-4.5H9.684z M31.166,64.618l6.102-6.101H17.184v16.056   c1.631-1.333,3.458-2.963,5.498-5.003c0.259-0.259,0.515-0.489,0.771-0.728c-0.54,0.205-1.162,0.319-1.768,0.319   c-1.609,0-3.332-0.804-3.332-2c0-0.553,0.447-1,1-1c0.422,0,0.783,0.262,0.93,0.632c0.192,0.132,0.711,0.368,1.402,0.368   c0.692,0,1.212-0.236,1.404-0.368c0.002-0.004,0.005-0.007,0.006-0.011c0.009-0.02,0.022-0.035,0.032-0.055   c0.042-0.086,0.094-0.164,0.158-0.234c0.025-0.028,0.053-0.052,0.082-0.077c0.062-0.054,0.129-0.099,0.202-0.137   c0.033-0.017,0.063-0.034,0.098-0.047c0.11-0.042,0.227-0.071,0.352-0.071s0.242,0.029,0.353,0.071   c0.034,0.013,0.063,0.03,0.096,0.047c0.074,0.038,0.143,0.083,0.204,0.138c0.028,0.025,0.056,0.048,0.081,0.075   c0.064,0.07,0.116,0.149,0.158,0.235c0.01,0.02,0.024,0.035,0.032,0.055c0.001,0.004,0.004,0.007,0.006,0.011   c0.112,0.077,0.347,0.186,0.652,0.267c1.923-1.399,3.786-2.222,5.567-2.439L31.166,64.618z M31.998,47.564l-4.547,5.098   c-0.284,0.319-0.691,0.502-1.119,0.502h-9.148v2.354h19.409L31.998,47.564z M43.693,52.094l1.605-1.605l-4.604-7.971l-4.073,7.054   l3.435,5.946h0.212L43.693,52.094z M51.411,44.375l-2.728-5.151L45.61,45.03l1.884,3.263L51.411,44.375z M73.624,22.162h-56.44   v28.002h8.477l5.48-6.145c0.32-0.359,0.787-0.538,1.272-0.494c0.479,0.049,0.905,0.325,1.146,0.742l1.331,2.305l4.507-7.805   c0.268-0.464,0.763-0.75,1.299-0.75s1.031,0.286,1.299,0.75l1.845,3.195l3.519-6.647c0.261-0.49,0.771-0.798,1.326-0.798   s1.065,0.307,1.325,0.798l3.622,6.841L73.624,22.162z M35.762,69.215c-1.118-1.118-2.304-1.662-3.626-1.662   c-2.119,0-4.587,1.393-7.333,4.139c-6.174,6.174-10.71,9.019-13.413,10.317c2.264,1.428,6.098,3.33,10.457,3.33   c4.165,0,8.015-1.737,11.44-5.163c2.491-2.491,3.872-4.763,4.104-6.752C37.571,71.868,37.038,70.492,35.762,69.215z M48.844,61.084   l-4.949-4.949l-8.486,8.483l4.951,4.951L48.844,61.084z M89.291,15.687c-1.322-1.32-3.627-1.32-4.949,0L46.016,54.014l4.949,4.949   l38.326-38.326C90.655,19.272,90.655,17.052,89.291,15.687z"></path></g></svg>