<svg height='100px' width='100px'  fill="#000000" xmlns="http://www.w3.org/2000/svg" xmlns:xlink="http://www.w3.org/1999/xlink" version="1.1" x="0px" y="0px" viewBox="0 0 100 100" enable-background="new 0 0 100 100" xml:space="preserve"><g display="none"><g display="inline"><line fill="#000000" stroke="#000000" stroke-miterlimit="10" x1="0" y1="0" x2="0" y2="100"></line><line fill="#000000" stroke="#000000" stroke-miterlimit="10" x1="5" y1="0" x2="5" y2="100"></line><line fill="#000000" stroke="#000000" stroke-miterlimit="10" x1="10" y1="0" x2="10" y2="100"></line><line fill="#000000" stroke="#000000" stroke-miterlimit="10" x1="15" y1="0" x2="15" y2="100"></line><line fill="#000000" stroke="#000000" stroke-miterlimit="10" x1="20" y1="0" x2="20" y2="100"></line><line fill="#000000" stroke="#000000" stroke-miterlimit="10" x1="25" y1="0" x2="25" y2="100"></line><line fill="#000000" stroke="#000000" stroke-miterlimit="10" x1="30" y1="0" x2="30" y2="100"></line><line fill="#000000" stroke="#000000" stroke-miterlimit="10" x1="35" y1="0" x2="35" y2="100"></line><line fill="#000000" stroke="#000000" stroke-miterlimit="10" x1="40" y1="0" x2="40" y2="100"></line><line fill="#000000" stroke="#000000" stroke-miterlimit="10" x1="45" y1="0" x2="45" y2="100"></line><line fill="#000000" stroke="#000000" stroke-miterlimit="10" x1="50" y1="0" x2="50" y2="100"></line><line fill="#000000" stroke="#000000" stroke-miterlimit="10" x1="55" y1="0" x2="55" y2="100"></line><line fill="#000000" stroke="#000000" stroke-miterlimit="10" x1="60" y1="0" x2="60" y2="100"></line><line fill="#000000" stroke="#000000" stroke-miterlimit="10" x1="65" y1="0" x2="65" y2="100"></line><line fill="#000000" stroke="#000000" stroke-miterlimit="10" x1="70" y1="0" x2="70" y2="100"></line><line fill="#000000" stroke="#000000" stroke-miterlimit="10" x1="75" y1="0" x2="75" y2="100"></line><line fill="#000000" stroke="#000000" stroke-miterlimit="10" x1="80" y1="0" x2="80" y2="100"></line><line fill="#000000" stroke="#000000" stroke-miterlimit="10" x1="85" y1="0" x2="85" y2="100"></line><line fill="#000000" stroke="#000000" stroke-miterlimit="10" x1="90" y1="0" x2="90" y2="100"></line><line fill="#000000" stroke="#000000" stroke-miterlimit="10" x1="95" y1="0" x2="95" y2="100"></line><line fill="#000000" stroke="#000000" stroke-miterlimit="10" x1="100" y1="0" x2="100" y2="100"></line></g><g display="inline"><line fill="#000000" stroke="#000000" stroke-miterlimit="10" x1="100" y1="0" x2="0" y2="0"></line><line fill="#000000" stroke="#000000" stroke-miterlimit="10" x1="100" y1="5" x2="0" y2="5"></line><line fill="#000000" stroke="#000000" stroke-miterlimit="10" x1="100" y1="10" x2="0" y2="10"></line><line fill="#000000" stroke="#000000" stroke-miterlimit="10" x1="100" y1="15" x2="0" y2="15"></line><line fill="#000000" stroke="#000000" stroke-miterlimit="10" x1="100" y1="20" x2="0" y2="20"></line><line fill="#000000" stroke="#000000" stroke-miterlimit="10" x1="100" y1="25" x2="0" y2="25"></line><line fill="#000000" stroke="#000000" stroke-miterlimit="10" x1="100" y1="30" x2="0" y2="30"></line><line fill="#000000" stroke="#000000" stroke-miterlimit="10" x1="100" y1="35" x2="0" y2="35"></line><line fill="#000000" stroke="#000000" stroke-miterlimit="10" x1="100" y1="40" x2="0" y2="40"></line><line fill="#000000" stroke="#000000" stroke-miterlimit="10" x1="100" y1="45" x2="0" y2="45"></line><line fill="#000000" stroke="#000000" stroke-miterlimit="10" x1="100" y1="50" x2="0" y2="50"></line><line fill="#000000" stroke="#000000" stroke-miterlimit="10" x1="100" y1="55" x2="0" y2="55"></line><line fill="#000000" stroke="#000000" stroke-miterlimit="10" x1="100" y1="60" x2="0" y2="60"></line><line fill="#000000" stroke="#000000" stroke-miterlimit="10" x1="100" y1="65" x2="0" y2="65"></line><line fill="#000000" stroke="#000000" stroke-miterlimit="10" x1="100" y1="70" x2="0" y2="70"></line><line fill="#000000" stroke="#000000" stroke-miterlimit="10" x1="100" y1="75" x2="0" y2="75"></line><line fill="#000000" stroke="#000000" stroke-miterlimit="10" x1="100" y1="80" x2="0" y2="80"></line><line fill="#000000" stroke="#000000" stroke-miterlimit="10" x1="100" y1="85" x2="0" y2="85"></line><line fill="#000000" stroke="#000000" stroke-miterlimit="10" x1="100" y1="90" x2="0" y2="90"></line><line fill="#000000" stroke="#000000" stroke-miterlimit="10" x1="100" y1="95" x2="0" y2="95"></line><line fill="#000000" stroke="#000000" stroke-miterlimit="10" x1="100" y1="100" x2="0" y2="100"></line></g></g><g display="none"><line display="inline" fill="none" stroke="#000000" stroke-width="2" stroke-linecap="round" stroke-miterlimit="10" x1="7.438" y1="90" x2="12.368" y2="85.07"></line><line display="inline" fill="none" stroke="#000000" stroke-width="2" stroke-linecap="round" stroke-miterlimit="10" x1="12.438" y1="90" x2="17.438" y2="85"></line><line display="inline" fill="none" stroke="#000000" stroke-width="2" stroke-linecap="round" stroke-miterlimit="10" x1="2.438" y1="90" x2="7.438" y2="85"></line><line display="inline" fill="none" stroke="#000000" stroke-width="2" stroke-linecap="round" stroke-miterlimit="10" x1="2.438" y1="85" x2="5.438" y2="82"></line><line display="inline" fill="none" stroke="#000000" stroke-width="2" stroke-linecap="round" stroke-miterlimit="10" x1="17.438" y1="90" x2="22.438" y2="85"></line><line display="inline" fill="none" stroke="#000000" stroke-width="2" stroke-linecap="round" stroke-miterlimit="10" x1="22.438" y1="90" x2="27.438" y2="85"></line><line display="inline" fill="none" stroke="#000000" stroke-width="2" stroke-linecap="round" stroke-miterlimit="10" x1="27.438" y1="90" x2="32.438" y2="85"></line><line display="inline" fill="none" stroke="#000000" stroke-width="2" stroke-linecap="round" stroke-miterlimit="10" x1="32.438" y1="90" x2="37.438" y2="85"></line><line display="inline" fill="none" stroke="#000000" stroke-width="2" stroke-linecap="round" stroke-miterlimit="10" x1="37.438" y1="90" x2="42.438" y2="85"></line><line display="inline" fill="none" stroke="#000000" stroke-width="2" stroke-linecap="round" stroke-miterlimit="10" x1="42.438" y1="90" x2="47.438" y2="85"></line><line display="inline" fill="none" stroke="#000000" stroke-width="2" stroke-linecap="round" stroke-miterlimit="10" x1="47.438" y1="90" x2="52.438" y2="85"></line><line display="inline" fill="none" stroke="#000000" stroke-width="2" stroke-linecap="round" stroke-miterlimit="10" x1="52.438" y1="90" x2="57.438" y2="85"></line><line display="inline" fill="none" stroke="#000000" stroke-width="2" stroke-linecap="round" stroke-miterlimit="10" x1="57.438" y1="90" x2="62.438" y2="85"></line><line display="inline" fill="none" stroke="#000000" stroke-width="2" stroke-linecap="round" stroke-miterlimit="10" x1="62.438" y1="90" x2="67.438" y2="85"></line><line display="inline" fill="none" stroke="#000000" stroke-width="2" stroke-linecap="round" stroke-miterlimit="10" x1="67.438" y1="90" x2="72.438" y2="85"></line><line display="inline" fill="none" stroke="#000000" stroke-width="2" stroke-linecap="round" stroke-miterlimit="10" x1="72.438" y1="90" x2="77.438" y2="85"></line><line display="inline" fill="none" stroke="#000000" stroke-width="2" stroke-linecap="round" stroke-miterlimit="10" x1="82.438" y1="90" x2="87.438" y2="85"></line><line display="inline" fill="none" stroke="#000000" stroke-width="2" stroke-linecap="round" stroke-miterlimit="10" x1="77.438" y1="90" x2="82.438" y2="85"></line><line display="inline" fill="none" stroke="#000000" stroke-width="2" stroke-linecap="round" stroke-miterlimit="10" x1="87.438" y1="90" x2="92.438" y2="85"></line><path display="inline" fill="none" stroke="#000000" stroke-width="3" stroke-linecap="round" stroke-miterlimit="10" d="   M85,60.167H15v-45c0-2.762,2.239-5,5-5h60c2.761,0,5,2.238,5,5V60.167z"></path><rect x="20" y="15.167" display="inline" fill="none" stroke="#000000" stroke-width="3" stroke-linecap="round" stroke-linejoin="round" stroke-miterlimit="10" width="60" height="40"></rect><path display="inline" fill="none" stroke="#000000" stroke-width="3" stroke-linecap="round" stroke-miterlimit="10" d="   M95.167,75.167c0,2.762-2.239,5-5,5h-80c-2.761,0-5-2.238-5-5l10-15h70L95.167,75.167z"></path><path display="inline" fill="none" stroke="#000000" stroke-width="3" stroke-linecap="round" stroke-miterlimit="10" d="   M95.167,75.392v4.775c0,2.762-2.239,5-5,5h-80c-2.761,0-5-2.238-5-5v-4.774"></path><polygon display="inline" fill="none" stroke="#000000" stroke-width="3" stroke-linecap="round" stroke-linejoin="round" stroke-miterlimit="10" points="   80.167,70.167 20.167,70.167 25.167,60.167 75.167,60.167  "></polygon><path display="inline" fill="none" stroke="#000000" stroke-width="3" stroke-linecap="round" stroke-miterlimit="10" d="   M65.167,70.167c0,2.762-2.239,5-5,5h-20c-2.761,0-5-2.238-5-5H65.167z"></path><line display="inline" fill="none" stroke="#000000" stroke-width="2" stroke-linecap="round" stroke-miterlimit="10" x1="22.667" y1="65.167" x2="77.667" y2="65.167"></line><g display="inline"><line fill="none" stroke="#000000" stroke-width="2" stroke-linecap="round" stroke-miterlimit="10" x1="20.167" y1="70.167" x2="25.167" y2="60.167"></line><line fill="none" stroke="#000000" stroke-width="2" stroke-linecap="round" stroke-miterlimit="10" x1="30.167" y1="70.166" x2="33.5" y2="60.167"></line><line fill="none" stroke="#000000" stroke-width="2" stroke-linecap="round" stroke-miterlimit="10" x1="40.167" y1="70.167" x2="41.834" y2="60.167"></line><line fill="none" stroke="#000000" stroke-width="2" stroke-linecap="round" stroke-miterlimit="10" x1="50.167" y1="70.167" x2="50.167" y2="60.167"></line></g><g display="inline"><line fill="none" stroke="#000000" stroke-width="2" stroke-linecap="round" stroke-miterlimit="10" x1="80.167" y1="70.167" x2="75.167" y2="60.167"></line><line fill="none" stroke="#000000" stroke-width="2" stroke-linecap="round" stroke-miterlimit="10" x1="70.167" y1="70.166" x2="66.833" y2="60.167"></line><line fill="none" stroke="#000000" stroke-width="2" stroke-linecap="round" stroke-miterlimit="10" x1="60.167" y1="70.167" x2="58.5" y2="60.167"></line><line fill="none" stroke="#000000" stroke-width="2" stroke-linecap="round" stroke-miterlimit="10" x1="50.167" y1="70.167" x2="50.167" y2="60.167"></line></g><line display="inline" fill="none" stroke="#000000" stroke-width="2" stroke-linecap="round" stroke-miterlimit="10" x1="25" y1="20.167" x2="30" y2="20.167"></line><line display="inline" fill="none" stroke="#000000" stroke-width="2" stroke-linecap="round" stroke-miterlimit="10" x1="25" y1="23.167" x2="30" y2="23.167"></line><line display="inline" fill="none" stroke="#000000" stroke-width="2" stroke-linecap="round" stroke-miterlimit="10" x1="25" y1="26.167" x2="30" y2="26.167"></line><g display="inline"><rect x="36.151" y="27.167" fill="none" stroke="#000000" stroke-width="2" stroke-linecap="round" stroke-linejoin="round" stroke-miterlimit="10" width="16" height="16"></rect><g><defs><rect id="b" x="36.151" y="27.167" width="16" height="16"></rect></defs><clipPath id="a"><use xlink:href="#b" overflow="visible"></use></clipPath><g clip-path="url(#a)"><line fill="none" stroke="#000000" stroke-width="2" stroke-linecap="round" stroke-linejoin="round" stroke-miterlimit="10" x1="36.151" y1="43.167" x2="52.151" y2="27.167"></line><line fill="none" stroke="#000000" stroke-width="2" stroke-linecap="round" stroke-linejoin="round" stroke-miterlimit="10" x1="38.979" y1="45.995" x2="54.979" y2="29.995"></line><line fill="none" stroke="#000000" stroke-width="2" stroke-linecap="round" stroke-linejoin="round" stroke-miterlimit="10" x1="41.808" y1="48.823" x2="57.808" y2="32.823"></line></g><g clip-path="url(#a)"><line fill="none" stroke="#000000" stroke-width="2" stroke-linecap="round" stroke-linejoin="round" stroke-miterlimit="10" x1="30.495" y1="37.511" x2="46.494" y2="21.511"></line><line fill="none" stroke="#000000" stroke-width="2" stroke-linecap="round" stroke-linejoin="round" stroke-miterlimit="10" x1="33.323" y1="40.339" x2="49.322" y2="24.339"></line><line fill="none" stroke="#000000" stroke-width="2" stroke-linecap="round" stroke-linejoin="round" stroke-miterlimit="10" x1="36.151" y1="43.167" x2="52.151" y2="27.167"></line></g></g><g><line fill="none" stroke="#000000" stroke-width="2" stroke-linecap="round" stroke-miterlimit="10" x1="58.293" y1="32.905" x2="72" y2="32.905"></line><line fill="none" stroke="#000000" stroke-width="2" stroke-linecap="round" stroke-miterlimit="10" x1="58.293" y1="37.431" x2="66.343" y2="37.431"></line><line fill="none" stroke="#000000" stroke-width="2" stroke-linecap="round" stroke-miterlimit="10" x1="58.293" y1="28.381" x2="67.475" y2="28.381"></line><line fill="none" stroke="#000000" stroke-width="2" stroke-linecap="round" stroke-miterlimit="10" x1="58.293" y1="41.957" x2="68.606" y2="41.957"></line></g></g></g><g><path d="M80.718,55.041V17.236c0-0.781-0.634-1.416-1.417-1.416H22.595c-0.783,0-1.417,0.635-1.417,1.416v37.805   c0,0.783,0.634,1.418,1.417,1.418h56.706C80.084,56.459,80.718,55.824,80.718,55.041z M77.883,53.623H24.013V18.654h53.871V53.623z    M95.053,73.514l-9.609-14.412V17.236c0-3.387-2.756-6.143-6.143-6.143H22.595c-3.387,0-6.143,2.756-6.143,6.143v42.336   L7.159,73.514v0.43c0,0.047,0.006,0.094,0.007,0.141c-0.001,0.025-0.007,0.047-0.007,0.072v4.512c0,0.625,0.095,1.23,0.271,1.799   l-2.101,2.1c-0.369,0.369-0.369,0.969,0,1.338c0.185,0.184,0.427,0.275,0.668,0.275s0.483-0.092,0.668-0.275l1.655-1.656   c0.285,0.395,0.613,0.756,0.981,1.072l-3.973,3.973c-0.369,0.369-0.369,0.967,0,1.336c0.185,0.186,0.427,0.277,0.668,0.277   s0.483-0.092,0.668-0.277l4.287-4.287c0.512,0.213,1.059,0.357,1.629,0.424l-2.527,2.527c-0.369,0.369-0.369,0.967,0,1.336   c0.185,0.186,0.426,0.277,0.668,0.277c0.242,0,0.483-0.092,0.668-0.277l3.818-3.818h2.053l-2.482,2.482   c-0.369,0.369-0.369,0.967,0,1.336c0.185,0.186,0.426,0.277,0.668,0.277c0.242,0,0.484-0.092,0.668-0.277l3.818-3.818h2.052   l-2.481,2.482c-0.369,0.369-0.369,0.967,0,1.336c0.185,0.186,0.426,0.277,0.668,0.277s0.484-0.092,0.668-0.277l3.818-3.818h2.053   l-2.482,2.482c-0.369,0.369-0.369,0.967,0,1.336c0.185,0.186,0.427,0.277,0.668,0.277s0.483-0.092,0.668-0.277l3.818-3.818h2.053   l-2.482,2.482c-0.369,0.369-0.369,0.967,0,1.336c0.185,0.186,0.426,0.277,0.668,0.277c0.242,0,0.483-0.092,0.668-0.277l3.818-3.818   h2.053l-2.482,2.482c-0.369,0.369-0.369,0.967,0,1.336c0.185,0.186,0.426,0.277,0.668,0.277c0.242,0,0.484-0.092,0.668-0.277   l3.818-3.818h2.052l-2.481,2.482c-0.369,0.369-0.369,0.967,0,1.336c0.185,0.186,0.426,0.277,0.668,0.277s0.484-0.092,0.668-0.277   l3.818-3.818h2.053l-2.482,2.482c-0.369,0.369-0.369,0.967,0,1.336c0.185,0.186,0.427,0.277,0.668,0.277s0.483-0.092,0.668-0.277   l3.818-3.818h2.053l-2.482,2.482c-0.369,0.369-0.369,0.967,0,1.336c0.185,0.186,0.426,0.277,0.668,0.277   c0.242,0,0.483-0.092,0.668-0.277l3.818-3.818h2.053l-2.482,2.482c-0.369,0.369-0.369,0.967,0,1.336   c0.185,0.186,0.426,0.277,0.668,0.277c0.242,0,0.484-0.092,0.668-0.277l3.818-3.818h2.053l-2.481,2.482   c-0.37,0.369-0.37,0.967,0,1.336c0.185,0.186,0.426,0.277,0.668,0.277s0.483-0.092,0.668-0.277l3.818-3.818h2.053l-2.482,2.482   c-0.369,0.369-0.369,0.967,0,1.336c0.185,0.186,0.427,0.277,0.668,0.277s0.483-0.092,0.668-0.277l3.818-3.818h2.053l-2.482,2.482   c-0.369,0.369-0.369,0.967,0,1.336c0.185,0.186,0.426,0.277,0.668,0.277c0.242,0,0.483-0.092,0.668-0.277l3.818-3.818h2.052   l-2.481,2.482c-0.369,0.369-0.369,0.967,0,1.336c0.185,0.186,0.426,0.277,0.668,0.277s0.484-0.092,0.668-0.277l3.818-3.818h2.053   l-2.482,2.482c-0.369,0.369-0.369,0.967,0,1.336c0.185,0.186,0.427,0.277,0.668,0.277s0.483-0.092,0.668-0.277l3.818-3.818h2.053   l-2.482,2.482c-0.369,0.369-0.369,0.967,0,1.336c0.185,0.186,0.426,0.277,0.668,0.277c0.242,0,0.483-0.092,0.668-0.277l3.818-3.818   h2.053l-2.482,2.482c-0.369,0.369-0.369,0.967,0,1.336c0.185,0.186,0.426,0.277,0.668,0.277c0.242,0,0.484-0.092,0.668-0.277   l4.304-4.303c2.202-0.936,3.75-3.119,3.75-5.658v-4.514c0-0.023-0.006-0.047-0.008-0.07c0.001-0.047,0.008-0.094,0.008-0.141   V73.514z M88.91,81.977H13.302c-1.662,0-3.029-1.238-3.26-2.838c0.946,0.598,2.062,0.947,3.26,0.947H88.91   c1.198,0,2.313-0.35,3.26-0.947C91.938,80.738,90.572,81.977,88.91,81.977z M19.288,17.236c0-1.822,1.484-3.307,3.308-3.307h56.706   c1.824,0,3.308,1.484,3.308,3.307v41.111h-7.875H27.479h-8.191V17.236z M61.278,67.799l-0.394-2.361h6.867l0.788,2.361H66.7H61.278   z M33.672,67.799l0.788-2.361h6.867l-0.394,2.361h-5.421H33.672z M66.333,61.184l0.788,2.363H60.57l-0.394-2.363H66.333z    M58.26,61.184l0.394,2.363h-6.603v-2.363H58.26z M42.849,67.799l0.394-2.361h6.917v2.361H42.849z M52.051,65.438h6.918   l0.394,2.361h-7.312V65.438z M50.161,63.547h-6.603l0.394-2.363h6.208V63.547z M41.642,63.547H35.09l0.788-2.363h6.158   L41.642,63.547z M33.097,63.547h-5.924l1.182-2.363h5.53L33.097,63.547z M26.229,65.438h6.239l-0.788,2.361h-6.633L26.229,65.438z    M63.545,70.635c-0.532,1.117-1.672,1.891-2.989,1.891H41.655c-1.317,0-2.457-0.773-2.988-1.891H63.545z M70.532,67.799   l-0.788-2.361h6.239l1.181,2.361H70.532z M69.114,63.547l-0.788-2.363h5.531l1.181,2.363H69.114z M18.786,61.184h6.398l-3.7,7.398   c-0.22,0.439-0.196,0.963,0.063,1.381c0.258,0.418,0.714,0.672,1.206,0.672h12.931c0.642,2.705,3.073,4.725,5.971,4.725h18.902   c2.898,0,5.329-2.02,5.972-4.725h12.93c0.006-0.002,0.012,0,0.019,0c0.783,0,1.417-0.635,1.417-1.418   c0-0.307-0.097-0.59-0.263-0.822l-3.605-7.211h6.398l8.769,13.152c-0.195,1.641-1.594,2.914-3.284,2.914H13.302   c-1.69,0-3.089-1.273-3.284-2.914L18.786,61.184z M26.375,21.963c0-0.523,0.423-0.945,0.945-0.945h4.726   c0.521,0,0.945,0.422,0.945,0.945c0,0.521-0.423,0.945-0.945,0.945h-4.726C26.799,22.908,26.375,22.484,26.375,21.963z    M26.375,24.797c0-0.521,0.423-0.943,0.945-0.943h4.726c0.521,0,0.945,0.422,0.945,0.943c0,0.523-0.423,0.945-0.945,0.945h-4.726   C26.799,25.742,26.375,25.32,26.375,24.797z M26.375,27.633c0-0.521,0.423-0.945,0.945-0.945h4.726   c0.521,0,0.945,0.424,0.945,0.945c0,0.523-0.423,0.945-0.945,0.945h-4.726C26.799,28.578,26.375,28.156,26.375,27.633z    M37.86,44.645h15.121c0.521,0,0.945-0.422,0.945-0.945V28.578c0-0.242-0.092-0.484-0.277-0.668   c-0.185-0.186-0.426-0.277-0.668-0.277H37.86c-0.522,0-0.945,0.424-0.945,0.945v15.121c0,0.242,0.092,0.484,0.277,0.668   C37.376,44.553,37.618,44.645,37.86,44.645z M52.036,42.754h-1.203l1.203-1.201V42.754z M52.036,38.879l-3.875,3.875h-2.673   l6.549-6.547V38.879z M52.036,33.533l-9.222,9.221h-2.673l11.895-11.895V33.533z M38.805,29.523h1.203l-1.203,1.203V29.523z    M38.805,33.398l3.875-3.875h2.673l-6.549,6.549V33.398z M38.805,38.746l9.221-9.223h2.673L38.805,41.418V38.746z M57.84,34.002   c0-0.523,0.423-0.945,0.945-0.945H71.74c0.521,0,0.945,0.422,0.945,0.945c0,0.521-0.423,0.945-0.945,0.945H58.786   C58.264,34.947,57.84,34.523,57.84,34.002z M57.84,38.277c0-0.521,0.423-0.943,0.945-0.943h7.608c0.522,0,0.945,0.422,0.945,0.943   c0,0.523-0.423,0.945-0.945,0.945h-7.608C58.264,39.223,57.84,38.801,57.84,38.277z M57.84,29.725c0-0.521,0.423-0.945,0.945-0.945   h8.677c0.522,0,0.945,0.424,0.945,0.945c0,0.523-0.423,0.945-0.945,0.945h-8.677C58.264,30.67,57.84,30.248,57.84,29.725z    M57.84,42.557c0-0.523,0.423-0.945,0.945-0.945h9.747c0.522,0,0.945,0.422,0.945,0.945c0,0.521-0.423,0.945-0.945,0.945h-9.747   C58.264,43.502,57.84,43.078,57.84,42.557z"></path></g></svg>