<svg xmlns="http://www.w3.org/2000/svg" xmlns:xlink="http://www.w3.org/1999/xlink" version="1.1" x="0px" y="0px" viewBox="0 0 70 87.5" style="enable-background:new 0 0 70 70;" xml:space="preserve"><style type="text/css">
	.st0{fill:none;stroke:#000000;stroke-width:2;stroke-linecap:round;stroke-linejoin:round;stroke-miterlimit:10;}
	.st1{fill:none;stroke:#000000;stroke-width:2;}
	.st2{fill:none;stroke:#000000;stroke-width:2;stroke-linecap:round;}
	.st3{fill:none;}
	.st4{fill:none;stroke:#000000;stroke-width:2;stroke-linecap:round;stroke-linejoin:round;}
</style><g><g><g><path d="M44.935791,27.3986816c-0.2167969,0-0.4306641-0.0703125-0.6074219-0.2055664     c-2.3046875-1.7617188-5.5307617-2.6928711-9.3286133-2.6928711s-7.0234375,0.9311523-9.328125,2.6928711     c-0.262207,0.1992188-0.6049805,0.2568359-0.9155273,0.1567383c-0.3125-0.1010742-0.5551758-0.3491211-0.6494141-0.6635742     c-0.3032227-1.0083008-0.456543-2.0805664-0.456543-3.1860352c0-6.2583008,5.0913086-11.3496094,11.3496094-11.3496094     s11.3500977,5.0913086,11.3500977,11.3496094c0,1.1054688-0.1533203,2.1777344-0.456543,3.1860352     c-0.0942383,0.3144531-0.3369141,0.5625-0.6494141,0.6635742C45.1433105,27.3825684,45.0393066,27.3986816,44.935791,27.3986816z      M34.9997559,22.5002441c3.5981445,0,6.7685547,0.7729492,9.269043,2.2475586     c0.0541992-0.4072266,0.0810547-0.8237305,0.0810547-1.2475586c0-5.1552734-4.1943359-9.3496094-9.3500977-9.3496094     c-5.1552734,0-9.3496094,4.1943359-9.3496094,9.3496094c0,0.4238281,0.0268555,0.840332,0.0810547,1.2475586     C28.2316895,23.2731934,31.4016113,22.5002441,34.9997559,22.5002441z"/></g><g><path d="M25.8015137,19.8996582c-0.5522461,0-1-0.4477539-1-1c0-3.253418-2.6464844-5.8999023-5.8999023-5.8999023     c-0.5522461,0-1-0.4477539-1-1s0.4477539-1,1-1c4.355957,0,7.8999023,3.5439453,7.8999023,7.8999023     C26.8015137,19.4519043,26.3537598,19.8996582,25.8015137,19.8996582z"/></g><g><path d="M44.201416,19.8996582c-0.5522461,0-1-0.4477539-1-1c0-4.355957,3.5439453-7.8999023,7.8999023-7.8999023     c0.5522461,0,1,0.4477539,1,1s-0.4477539,1-1,1c-3.253418,0-5.8999023,2.6464844-5.8999023,5.8999023     C45.201416,19.4519043,44.7536621,19.8996582,44.201416,19.8996582z"/></g><g><path d="M56.8498535,40.6003418H49.927002c-0.5522461,0-1-0.4477539-1-1s0.4477539-1,1-1h6.9228516c0.5522461,0,1,0.4477539,1,1     S57.4020996,40.6003418,56.8498535,40.6003418z"/></g><g><path d="M20.072998,40.6003418h-6.9228516c-0.5522461,0-1-0.4477539-1-1s0.4477539-1,1-1h6.9228516c0.5522461,0,1,0.4477539,1,1     S20.6252441,40.6003418,20.072998,40.6003418z"/></g><g><path d="M34.9997559,59.0002441c-5.2358398,0-10.1391602-3.3051758-13.1166992-8.8408203     c-1.6630859-3.0927734-2.6342773-6.7280273-2.809082-10.5131836c-0.0126953-0.4047852-0.0239258-0.8061523-0.0239258-1.1958008     c0-5.7797852,1.8188477-10.1020508,5.4067383-12.8461914c2.6567383-2.0307617,6.3027344-3.1040039,10.5429688-3.1040039     c4.2407227,0,7.8867188,1.0732422,10.543457,3.1040039c3.5878906,2.7441406,5.4067383,7.0664063,5.4067383,12.8461914     c0,0.3842773-0.0117188,0.7807617-0.0229492,1.1655273c-0.1762695,3.8164063-1.1474609,7.4521484-2.8100586,10.543457     C45.1394043,55.6950684,40.236084,59.0002441,34.9997559,59.0002441z M34.9997559,24.5002441     c-3.7978516,0-7.0234375,0.9311523-9.328125,2.6928711c-3.0664063,2.3457031-4.621582,6.1333008-4.621582,11.2573242     c0,0.3691406,0.0112305,0.75,0.0224609,1.1191406c0.1601563,3.4726563,1.0498047,6.8120117,2.5722656,9.6425781     c2.6225586,4.8764648,6.8671875,7.7880859,11.3549805,7.7880859s8.7329102-2.9116211,11.3554688-7.7880859     c1.5219727-2.8295898,2.4116211-6.1694336,2.5727539-9.6582031c0.0107422-0.3623047,0.0219727-0.7387695,0.0219727-1.1035156     c0-5.1240234-1.5551758-8.9116211-4.621582-11.2573242C42.0236816,25.4313965,38.7976074,24.5002441,34.9997559,24.5002441z"/></g><g><path d="M56.8498535,59.0002441c-0.5522461,0-1-0.4477539-1-1c0-2.8271484-3.4145508-5.6474609-8.9111328-7.3598633     c-0.5273438-0.1640625-0.8217773-0.7246094-0.6572266-1.2519531c0.1640625-0.527832,0.7236328-0.8222656,1.2519531-0.6572266     c6.4599609,2.012207,10.3164063,5.4775391,10.3164063,9.269043     C57.8498535,58.5524902,57.4020996,59.0002441,56.8498535,59.0002441z"/></g><g><path d="M13.1501465,59.0002441c-0.5522461,0-1-0.4477539-1-1c0-3.7915039,3.8564453-7.2568359,10.3164063-9.269043     c0.527832-0.1645508,1.0874023,0.1298828,1.2519531,0.6572266s-0.1298828,1.0878906-0.6572266,1.2519531     c-5.496582,1.7124023-8.9111328,4.5327148-8.9111328,7.3598633     C14.1501465,58.5524902,13.7023926,59.0002441,13.1501465,59.0002441z"/></g><g><path d="M34.9997559,34.8493652c-11.5239258,0-20.5512695-5.4907227-20.5512695-12.5c0-0.5522461,0.4477539-1,1-1     s1,0.4477539,1,1c0,5.7895508,8.3222656,10.5,18.5512695,10.5c10.2294922,0,18.5517578-4.7104492,18.5517578-10.5     c0-0.5522461,0.4477539-1,1-1s1,0.4477539,1,1C55.5515137,29.3586426,46.5241699,34.8493652,34.9997559,34.8493652z"/></g></g><g><path d="M34.9997559,59.0002441c-0.5522461,0-1-0.4477539-1-1V33.8493652c0-0.5522461,0.4477539-1,1-1s1,0.4477539,1,1v24.1508789    C35.9997559,58.5524902,35.552002,59.0002441,34.9997559,59.0002441z"/></g></g><text x="0" y="85" fill="#000000" font-size="5px" font-weight="bold" font-family="'Helvetica Neue', Helvetica, Arial-Unicode, Arial, Sans-serif">Created by Dinosoft Labs</text><text x="0" y="90" fill="#000000" font-size="5px" font-weight="bold" font-family="'Helvetica Neue', Helvetica, Arial-Unicode, Arial, Sans-serif">from the Noun Project</text></svg>