<svg height='100px' width='100px'  fill="#e84a5f" xmlns="http://www.w3.org/2000/svg" xmlns:xlink="http://www.w3.org/1999/xlink" version="1.1" x="0px" y="0px" viewBox="0 0 100 100" style="enable-background:new 0 0 100 100;" xml:space="preserve"><g><path d="M40.49,51.82c0.37,0.45,0.87,0.82,1.54,1.12c0.69,0.31,1.44,0.47,2.16,0.47c0.79,0,1.52-0.2,2.12-0.59   c0.66-0.43,0.64-1.74,0.6-2.29c-0.07-0.81-0.36-1.6-0.83-2.23c-1.23-1.62-3.3-2.1-6.03-1.39c-0.51,0.13-0.63,1.12-0.36,2.94   C39.8,50.64,40.08,51.31,40.49,51.82z"></path><path d="M63.06,49.57c-0.49-0.21-1.36-0.53-2.22-0.62c-1.36-0.13-2.72,0.34-3.59,1.26c-0.85,0.88-1.68,3.23-0.51,4.42   c0.05,0.04,0.09,0.08,0.14,0.12c0.57,0.47,1.41,0.71,2.49,0.71c0.25,0,0.48-0.01,0.7-0.03c0.72-0.07,1.31-0.25,1.8-0.55   c0.96-0.59,1.47-1.84,1.6-2.21c0.28-0.76,0.51-1.56,0.4-2.23C63.77,49.87,63.38,49.7,63.06,49.57z"></path><path d="M61.46,61.08c-0.56-0.09-1.07,0.27-1.16,0.81c-0.01,0.08-0.76,4.04-3.43,4.59c-3.43,0.7-4.73-0.94-5-1.36l1.28-1.14   c0.28-0.25,0.43-0.61,0.41-0.99c-0.03-0.37-0.22-0.7-0.53-0.91c-0.56-0.38-1.27-0.61-2.12-0.68c-0.67-0.06-1.25,0.01-1.79,0.2   c-0.4,0.13-0.69,0.45-0.79,0.85c-0.1,0.4,0.01,0.82,0.29,1.12l1.27,1.35c-0.98,0.55-3.39,1.66-5.39,0.63   c-2.79-1.43-2.94-3.37-3.02-4.53c0-0.01-0.01-0.01-0.01-0.01c0-0.01,0-0.01,0-0.02l-0.15-1.5c-0.06-0.55-0.54-0.95-1.09-0.9   c-0.55,0.06-0.95,0.55-0.9,1.1l0.15,1.51c0.1,1.27,0.35,4.2,4.1,6.13c0.38,0.19,0.76,0.33,1.13,0.43c0.41,0.48,1.05,1.12,1.95,1.65   c0.9,0.53,2.05,0.94,3.45,0.94c1.62,0,3.27-0.58,4.91-1.71c0.07,0,0.14,0.01,0.22,0.01c0.61,0,1.29-0.06,2.03-0.22   c4.02-0.82,4.96-5.97,5-6.19C62.36,61.69,62,61.18,61.46,61.08z M50.11,68.35c-0.87,0-1.61-0.23-2.21-0.55   c1.12-0.23,2.1-0.67,2.75-1.01c0.33,0.37,0.83,0.79,1.49,1.14C51.51,68.18,50.83,68.35,50.11,68.35z"></path><path d="M69.25,9.48c-6.91,0-13.38,2.67-18.23,7.52L50,18.02L48.98,17c-4.85-4.85-11.32-7.52-18.23-7.52   c-6.9,0-13.38,2.67-18.22,7.52C7.67,21.85,5,28.32,5,35.23c0,6.91,2.67,13.38,7.53,18.23l1.72,1.73L49.3,90.23   c0.19,0.19,0.45,0.29,0.7,0.29c0.26,0,0.52-0.1,0.71-0.29l36.77-36.77C92.33,48.61,95,42.14,95,35.23c0-6.91-2.67-13.38-7.52-18.23   C82.63,12.15,76.16,9.48,69.25,9.48z M75.51,28.33l-4.13,6.5c-0.27,0.44-0.42,0.94-0.42,1.44v0.92c0,0.44-0.07,0.87-0.23,1.27   l-0.98,2.5c-0.19,0.45-0.22,0.97-0.08,1.45c0.45,1.57,1.46,5.66,1.28,9.72c-0.23,4.94-4.76,8.83-4.81,8.87   c-0.1,0.09-0.16,0.21-0.17,0.35c-0.01,0.13,0.03,0.27,0.12,0.37c0.7,0.77,2.57,3.07,2.88,4.42c0.08,0.38,0.16,0.78,0.24,1.19   c0.09,0.43,0.18,0.86,0.28,1.29L50,88.11L24.45,62.55c0.46-0.77,0.89-1.52,1.19-2.24c0.45-1.08,0.42-3.91,0.39-7.18   c-0.03-2.98-0.06-6.07,0.29-7.8c0.434-2.189,2.368-7.571,3.803-11.423c0.176,0.877,0.421,1.774,0.57,2.29   c0.127,0.438,0.526,0.722,0.96,0.722c0.093,0,0.187-0.013,0.279-0.04c0.53-0.153,0.836-0.708,0.683-1.238   c-0.383-1.323-0.758-3.014-0.707-3.424c0.171-0.851,0.101-3.882,0.083-4.56c0.023-1.403,0.142-4.92,0.389-5.856   c0.31-1.17,1.72-3.36,2.68-3.9c0.65-0.38,2.09,0.1,2.84,0.49c-0.02,0,1.41,1.13,3.49,3.6c0.077,0.091,0.159,0.206,0.239,0.312   c1.681,2.298,4,8.486,4.784,10.783c0.142,0.416,0.53,0.677,0.946,0.677c0.107,0,0.216-0.018,0.323-0.054   c0.522-0.179,0.802-0.747,0.623-1.27c-0.082-0.239-1.367-3.974-2.881-7.306c2,0.036,5.793,0.169,8.646,0.678   c3.98,0.7,7.55,2.98,7.59,3c0.08,0.05,0.17,0.08,0.27,0.08c0.04,0,0.07,0,0.11-0.01l1.645-0.374   c-0.949,0.886-1.812,1.717-2.29,2.242c-0.628,0.692-2.051,2.883-2.211,3.13c-0.3,0.464-0.167,1.083,0.297,1.383   c0.168,0.109,0.355,0.161,0.542,0.161c0.328,0,0.649-0.161,0.841-0.457c0.57-0.882,1.621-2.442,2.011-2.872   c0.663-0.727,2.178-2.141,3.585-3.425c0.7-0.483,1.353-0.92,1.82-1.229c0.08-0.03,0.14-0.07,0.19-0.12   c0.34-0.22,0.55-0.36,0.56-0.37c2.65-1.34,5.92-2.35,6.51-1.57C76.53,26.67,75.52,28.31,75.51,28.33z"></path></g></svg>