<svg height='100px' width='100px'  fill="#000000" xmlns="http://www.w3.org/2000/svg" data-name="Livello 1" viewBox="0 0 150 150" x="0px" y="0px"><title>Tavola disegno 191_1</title><path d="M111.24927,110.50391c.03711-2.1128-3.24512-2.113-3.28223,0a117.81851,117.81851,0,0,0,1.968,23.53466c.38281,2.07447,3.54639,1.19581,3.16479-.87255A113.34864,113.34864,0,0,1,111.24927,110.50391Z"></path><path d="M142.13965,95.55859a11.55376,11.55376,0,0,1-1.39844-1.17578c-9.77637-9.71777-9.25976-18.417-7.6084-31.80566,1.93457-15.68262-.50195-27.4336-7.66894-36.98047-3.07129-4.08887-7.99317-9.41309-14-11.5498-8.47071-3.01368-20.792-1.0254-26.46485,1.26562-1.86425.52539-10.07129,5.084-10.19238,7.67285a1.22045,1.22045,0,0,0,.53516,1.248c.54223.28931,1.43017.064,2.51538-.46533a66.06465,66.06465,0,0,0-10.67847,8.13818c-1.80176,1.581-3.666,3.21484-5.54883,4.67285-.3164.24414-.666.50391-1.03418.77735-3.043,2.25976-7.21,5.35449-5.23437,9.085.6748,1.27539,2.2832,2.33007,3.70215,3.26074.623.4082,1.21191.79492,1.6709,1.16406C63.124,52.792,63.0918,54.08984,63.0332,56.44727c-.01953.74707-.04,1.59375.0127,2.58886a18.883,18.883,0,0,0,7.61426,14.5625,17.23831,17.23831,0,0,0,6.7207,3.21778c.55469.1289,1.36133.23242,2.21582.34277,1.77734.23047,3.99023.5166,4.8125,1.14062.9707.73731,1.32715,3.71094,1.61328,6.10059.10547.876.20508,1.708.3252,2.3457-.21485.08692-.45215.17676-.70313.27149-.98022.37012-5.85547,1.8916-6.91308,2.49707-.14161.081-.26661.15234-.36915.208-3.8789,2.1123-7.12207,3.92089-10.34375,5.87695-.75293.458-1.50976.92578-2.27343,1.39648-5.77442,3.56543-11.7461,7.251-18.40332,8.251-5.23731.78711-6.56055-4.36035-7.7334-8.89941-.20606-.79786-.40137-1.55078-.61231-2.251a87.12271,87.12271,0,0,1-3.27246-18.751A49.76574,49.76574,0,0,0,33.9834,64.42578l-.19141-.63965c-.09643-.325-.18506-.62134-.27368-.896-.00757-.02393-.01611-.04859-.02368-.072-.08447-.25757-.17017-.4939-.26172-.71021-.00879-.021-.01807-.04346-.0271-.064a3.90884,3.90884,0,0,0-.32617-.61011l-.0061-.00977a2.62238,2.62238,0,0,0-.43116-.49341c-.00561-.00488-.009-.01171-.01465-.0166.98829-2.98144,2.5459-8.16992,3.21485-11.2041.05273-.24121.11133-.498.17285-.76855.83984-3.68555,2.24609-9.85352-2.12109-11.27539l-.00489-.002c-2.7041-.78613-4.26074,2.64551-5.5498,6.47656a36.13568,36.13568,0,0,0-1.46094,5.6709c-.0332.1875-.08691.4834-.1543.84961-.44824,2.46094-.78515,4.417-.918,5.58789q-.2212-.74706-.44141-1.49316c-.99024-3.35254-2.01465-6.81934-3.25488-10.1543-.09278-.24707-.2002-.59277-.32618-.99609-.60156-1.93359-1.61035-5.16992-3.36328-5.54395a2.84229,2.84229,0,0,0-2.291.50782,7.42024,7.42024,0,0,0-2.56348,4.50293c-.43457,3.13476-.165,5.42871,2.54492,9.99218.31836.53516.69043,1.13965,1.0791,1.77051.79688,1.292,1.69922,2.75684,2.30274,3.91406a2.27532,2.27532,0,0,1,.13769.34864c-.04052.00268-.07421.01025-.11425.01342-.36377.02759-.71387.06592-1.04078.12134-.05664.00977-.10668.02466-.1621.03516q-.412.07764-.78394.18554c-.0979.02857-.19092.061-.28467.09278a6.13267,6.13267,0,0,0-.5791.228c-.07959.03613-.16162.0708-.23755.10986a4.87533,4.87533,0,0,0-.60449.36475c-.03711-.00318-.06982-.00513-.10718-.00831-.34082-.02929-.70019-.06054-1.0664-.083-.11719-.01758-.23926-.03321-.36719-.04493a.17409.17409,0,0,0-.10352.02051c-2.15039-.08008-4.41894.22266-4.87793,2.72559a4.05718,4.05718,0,0,0-.05127.82007,6.17386,6.17386,0,0,0-1.18017,1.512c-.85157,1.50488-1.44336,3.88184-.30957,5.62793a5.00708,5.00708,0,0,0,3.167,2.52832c.00635.04272.01294.08057.01953.12158.00415.02808.0083.053.0127.08008.02539.156.05151.29785.0769.4187l.011.05c.02612.11938.051.22192.07129.2876a20.16663,20.16663,0,0,0,4.02734,6.56152,13.45617,13.45617,0,0,0,5.77051,3.98145c.05005.019.12475.05224.20508.08911a16.08572,16.08572,0,0,0,1.07421,4.46655c.28028.833.5459,1.62012.69532,2.27344a78.35561,78.35561,0,0,0,3.665,12.39941c.36914.88672.71582,1.748,1.05175,2.583,2.80176,6.96387,4.8252,11.99609,12.92481,14.94141a22.437,22.437,0,0,0,7.707,1.26074c6.21289,0,12.53613-2.0127,17.55566-3.60938.58594-.18652,1.17383-.38867,1.76368-.59179a31.93407,31.93407,0,0,1,4.56542-1.31934,11.96653,11.96653,0,0,1,1.39649-.11133,19.04162,19.04162,0,0,0,2.15137-.187,116.3426,116.3426,0,0,1-1.57886,18.38013c-.3457,2.06616,2.81665,2.95434,3.16479.87256a121.84285,121.84285,0,0,0,1.69312-21.62647,1.66422,1.66422,0,0,0-2.51929-1.37085,61.68318,61.68318,0,0,0-10.20019,2.21777,39.87487,39.87487,0,0,0-1.59278-7.958c-.05859-.209-.10156-.36524-.125-.45508-.10058-.39551-.18945-.85547-.28222-1.34277a14.41267,14.41267,0,0,0-.98145-3.478q.99537-.54382,1.98242-1.08936c1.07227-.59179,2.13477-1.17773,3.18457-1.74121,3.51172-1.88476,6.93457-4.02246,10.24512-6.08887l.04785-.03027c.23731-.14746.57227-.32226.96094-.52344a17.8428,17.8428,0,0,0,2.10815-1.2268c.91187,1.791,4.34009,2.3247,6.06861,2.59106l.10449.0166a28.55373,28.55373,0,0,0,4.14844.27442c4.05639,0,9.19629-.70166,11.59912-3.14746a1.59846,1.59846,0,0,0,.52783.4021c15.46948,7.54321,15.65332,26.70263,17.46045,41.48242.25317,2.06982,3.53857,2.09521,3.28223,0-.79493-6.50049-1.34864-13.71192-2.84986-20.52539.55054-.24951,1.116-.55957,1.63062-.84351a9.7248,9.7248,0,0,1,1.29492-.64844c2.07422-.65039,16.46-10.54394,17.54883-12.61523C143.38379,96.68555,143.2627,96.3877,142.13965,95.55859ZM28.73926,52.63574c.13965-.99414.27636-1.97168.42383-2.95508.56836-3.79687,1.70507-8.083,3.1914-8.72558a1.01347,1.01347,0,0,1,1.03321.15918c.95117.65918.43066,4.43457.25976,5.67578l-.043.31445A54.65906,54.65906,0,0,1,31.9668,54.29c-.248.90527-.49121,1.792-.707,2.64258-.15332.6084-.39844,1.35058-.63575,2.06836-.12207.37109-.23632.71875-.33789,1.04394-.0791-.01465-.16113-.0293-.24414-.043-.74756-.12207-1.5083-.21533-2.26806-.2998-.04151-.00488-.08277-.012-.12452-.0166C28.10547,57.15234,28.42676,54.8623,28.73926,52.63574ZM16.58789,48.64648a12.27039,12.27039,0,0,1-.56152-5.23242c.2959-1.55566.6709-1.79.81836-1.81836.18652-.042.40722.14746.63281.498a93.3079,93.3079,0,0,1,3.97363,9.75293c.874,2.40039,1.77832,4.88184,2.79395,7.20508.04394.09961.08691.19726.1289.29077l-.00659-.00073c-.6228-.071-1.24658-.15186-1.86059-.249l-.02832-.002a.17922.17922,0,0,0-.13672.0625l-.18262-.01465a15.80728,15.80728,0,0,0-1.59375-2.51562c-.17969-.249-.33691-.46485-.44824-.63282A30.15908,30.15908,0,0,1,16.58789,48.64648ZM26.46,62.752a33.9552,33.9552,0,0,0,3.40234.419c.44239.98828,4.01075,9.19433,2.00489,11.17676-.68457.67773-2.01074.53027-3.94336-.44239-1.85742-.93359-1.84375-2.292-1.8291-3.86425a5.52467,5.52467,0,0,0-.87891-3.70508,4.61954,4.61954,0,0,0-3.16211-1.51953,12.09463,12.09463,0,0,1-1.335-.30274,27.10219,27.10219,0,0,1-2.7832-1.42187C20.31152,61.793,23.57324,62.30078,26.46,62.752ZM12.05273,70.03418a1.75154,1.75154,0,0,1-1.71875-.76172,2.58406,2.58406,0,0,1-.353-2.24975,10.43,10.43,0,0,0,1.53564,2.2937,7.6629,7.6629,0,0,0,.69629.68261C12.15942,70.00952,12.1062,70.02563,12.05273,70.03418Zm.73633-6.09473a.44887.44887,0,0,1,.2041-.55664,5.64725,5.64725,0,0,1,1.238.04517,3.58342,3.58342,0,0,0,.52075.99731,8.02416,8.02416,0,0,0,2.21534,1.94556,3.57054,3.57054,0,0,1-.3794.87817c-.46582.77442-.90039,1.15332-1.31445,1.10547-.93555-.09375-1.70508-2.25-2.21485-3.67773C12.96094,64.40527,12.87109,64.15332,12.78906,63.93945ZM54.20312,118.9209c-6.0498,1.80664-13.40136.68652-17.876-2.72168C32.92383,113.6084,31,108.67285,29.30371,104.31836c-.40918-1.04981-.7959-2.041-1.18848-2.96289a29.64069,29.64069,0,0,1-1.6582-6.61426c-.18262-1.06641-.37109-2.16894-.61035-3.22559-.11426-.50683-.22559-1.10253-.34473-1.73242-.19433-1.03418-.41015-2.16308-.69214-3.2478a3.166,3.166,0,0,0,.36011-.03589,1.81781,1.81781,0,0,0,1.30274-.91455,2.25961,2.25961,0,0,0-.47364-2.38574c-.835-1.06543-2.49023-1.48535-4.09082-1.8916a10.68379,10.68379,0,0,1-2.83593-.98242c-2.09668-1.29981-3.19532-3.42383-4.25782-5.47754-.18774-.36255-.37744-.72754-.573-1.09058-.06153-.11426-.12867-.22559-.19166-.33911-.14062-.25415-.28222-.50757-.43261-.75635-.01782-.029-.033-.05933-.05078-.08838.25-.14941.5664-.31738.9248-.50683a14.76261,14.76261,0,0,0,2.42993-1.4939,3.95121,3.95121,0,0,0,1.36988-1.427,4.19811,4.19811,0,0,0,.531-1.82886c.05371.02124.10913.04468.16138.06421a11.37483,11.37483,0,0,0,1.51172.42773,2.76469,2.76469,0,0,1,2.11426,1.20508,4.99732,4.99732,0,0,1,.48339,2.47754,5.25553,5.25553,0,0,0,.915,3.39746c.78028.97363,7.084,3.41309,8.56446,2.86621q.03369-.01319.06445-.02636c.2666,5.76464,1.81445,11.63964,3.31348,17.32519.30761,1.169.61328,2.32813.90332,3.47363,1.207,4.75391,2.91015,7.63086,5.35742,9.05664a7.8864,7.8864,0,0,0,4.0625,1.03223,13.96965,13.96965,0,0,0,3.66992-.54687,52.19979,52.19979,0,0,0,10.05078-4.1587c.06445.561.14258.96729.14551.979.30664,1.2539.70312,2.50879,1.08594,3.72265.34375,1.08985.70019,2.2168.98828,3.335.06347.248.13086.89843.209,1.65136.1084,1.03516.2168,2.00489.34863,2.82227C60.31934,117.11426,57.4834,117.94238,54.20312,118.9209ZM96.61328,90.33008c-.418.15234-.8125.2959-.89746.31347-3.48633.72657-6.85156,1.25684-9.69434-.126a27.34062,27.34062,0,0,0,2.94922-1.542c.9961-1.35547.668-2.66016.32032-4.041-.09571-.38184-.19532-.77637-.26758-1.18066a26.1691,26.1691,0,0,1-.32227-3.0625c-.16113-2.55371-.28808-4.57129-3.252-5.51758a42.352,42.352,0,0,0-4.46875-1.08789,28.7139,28.7139,0,0,1-6.85352-2.03809c-4.05273-1.91992-6.42871-5.18945-7.47656-10.29a19.53944,19.53944,0,0,1-.16016-4.46c.09375-2.62012.19043-5.3291-1.22265-7.2041a10.22711,10.22711,0,0,0-3.21973-2.15039c-1.76074-.91895-3.75586-1.959-3.96484-3.22754-.36426-2.20215,8.47949-8.89062,12.72949-12.10547,1.18457-.89648,2.12109-1.60449,2.64355-2.04a30.24128,30.24128,0,0,1,8.70411-5.31445l.09863-.03711c.56323-.21045,1.13476-.418,1.71045-.61792a5.34924,5.34924,0,0,0-.144.72144.24651.24651,0,0,0-.01758.17578c-.21485,2.38867.72461,5.625,1.41406,8.0039.21582.74121.40137,1.38184.5127,1.86426,1.208,5.25586,2.31054,10.30371,3.37109,15.43262.06836.3291.12891.74414.19629,1.207.28515,1.96484.67773,4.65723,2.22754,5.49707,1.72461.93555,2.88379-.1084,4.00683-1.11719a5.541,5.541,0,0,1,2.13086-1.4082c1.83887-.47656,2.16016-.21973,2.21485-.13086.28027.45508-1.292,2.24609-2.332,3.43066-1.127,1.28223-2.19042,2.49317-2.34082,3.24707-.27539,1.377,1.65528,4.2959,3.55372,6.56836a32.41942,32.41942,0,0,0,3.04711,3.19434,29.32786,29.32786,0,0,0-6.26293,3.01953c-2.77247,2.05176-2.333,4.58887-1.8252,7.52637.13965.80273.2832,1.63281.375,2.51074.37988,3.6123.95215,3.89746,3.08008,4.41992a20.41225,20.41225,0,0,1,2.19336.63965C98.72852,89.57422,97.82031,89.88965,96.61328,90.33008ZM123.835,107.87793c-1.56445,1.001-1.57226,1.0166-1.623,1.11719a4.34467,4.34467,0,0,1-.99511.79394l-.00025.00025c-2.35669-8.76245-6.63647-16.56739-15.53149-20.90479a1.662,1.662,0,0,0-1.00049-.16138c-.25146-.66308-1.08545-1.0559-2.12891-1.53759-.2539-.11719-.52148-.24024-.79687-.376a7.57886,7.57886,0,0,0-1.44824-.46191,5.03843,5.03843,0,0,1-1.81446-.68848c-.35351-.27637-.625-.47461-.835-.61328a3.15586,3.15586,0,0,0-.22461-1.71778c-.59765-1.92675-1.1914-5.20312-.38867-6.31445a33.33111,33.33111,0,0,1,3.46289-1.47558,44.38011,44.38011,0,0,1,5.22656-1.957h.02832c1.14942-.02148,1.79786-.29785,1.98243-.84472.40722-1.20606-1.76075-3.13086-4.16407-5.03125-.2539-.20117-.44043-.34766-.51855-.4209-.27344-.25488-.55176-.50586-.82813-.75488-1.75878-1.58692-3.41992-3.085-2.96-4.93946a5.069,5.069,0,0,1,1.666-2.15429,5.56184,5.56184,0,0,0,2.13184-3.1543c.31738-2.34082-.09082-3.88867-1.21485-4.59863-2.26465-1.4336-6.6582,1.05566-8.333,2.11523-.49511-1.77051-2.76074-11.3789-2.96875-12.38476-.75781-3.63672-1.78027-8.418-2.97461-13.15137-.01464-.05957-.03808-.16895-.06933-.31738a18.31946,18.31946,0,0,0-1.06153-3.61622.26685.26685,0,0,0,.00489-.04882.319.319,0,0,0-.11328-.23633.25687.25687,0,0,0-.04785-.02637c-.0188-.03467-.03956-.06152-.05884-.09472a14.0811,14.0811,0,0,1,1.595-.29493,11.86418,11.86418,0,0,1,2.50683.12891,9.28756,9.28756,0,0,0,2.98633.05664c1.6836-.43359,2.47266-.96582,2.41113-1.62793-.10156-1.09082-2.68164-1.751-4.48144-1.87109a23.8108,23.8108,0,0,0-10.0918,1.832c-.72461.293-1.42968.624-2.123.977,1.33544-.79541,2.85546-1.88257,4.37207-2.99658.76953-.56446,1.377-1.01172,1.65625-1.165,11.46875-6.293,27.43261-3.3916,36.34668,6.61035,6.72558,7.54883,10.04394,17.80176,9.34179,28.87012-.17969,2.83105-.50976,5.71-.8291,8.49511-1.47559,12.86426-2.86816,25.01758,9.2959,34.15723C138.74805,97.73633,125.333,106.91992,123.835,107.87793Z"></path><path d="M77.18359,44.97852A1.82217,1.82217,0,0,0,78.919,43.67871l.11523-.51855a1.82948,1.82948,0,0,0,.04492-.3545,1.64029,1.64029,0,0,0-.00976-.79785,2.075,2.075,0,0,0-3.41114-.97949,2.04267,2.04267,0,0,0-.67382,1.5498,2.52959,2.52959,0,0,0,.88085,1.84083A1.995,1.995,0,0,0,77.18359,44.97852Z"></path><path d="M80.84009,60.427a5.216,5.216,0,0,1-7.26831,1.14673c-1.46265-1.02637-2.77124,1.42114-1.3291,2.43311a7.90571,7.90571,0,0,0,10.60717-1.66993C83.91553,60.92456,81.91211,59.0061,80.84009,60.427Z"></path></svg>