<?xml version="1.0" encoding="utf-8"?>
<!-- Generator: Adobe Illustrator 16.0.0, SVG Export Plug-In . SVG Version: 6.00 Build 0)  -->
<!DOCTYPE svg PUBLIC "-//W3C//DTD SVG 1.1//EN" "http://www.w3.org/Graphics/SVG/1.1/DTD/svg11.dtd">
<svg version="1.1" id="Layer_1" xmlns="http://www.w3.org/2000/svg" xmlns:xlink="http://www.w3.org/1999/xlink" x="0px" y="0px"
	 width="437.978px" height="145.493px" viewBox="0 0 437.978 145.493" enable-background="new 0 0 437.978 145.493"
	 xml:space="preserve">
<g>
	<path fill="#231F20" d="M19.618,73.682h3.294c0.933,0,1.756-0.297,2.471-0.89c0.713-0.593,1.303-1.383,1.771-2.373
		c0.466-0.988,0.823-2.095,1.07-3.322c0.247-1.225,0.371-2.471,0.371-3.736V44.263c0-2.925,0.206-5.496,0.618-7.71
		c0.412-2.213,1.112-4.092,2.1-5.634c0.988-1.542,2.318-2.708,3.994-3.5c1.674-0.79,3.774-1.187,6.3-1.187h6.67v7.711h-7
		c-2.306,0-3.94,0.752-4.9,2.253c-0.961,1.503-1.441,4.232-1.441,8.185v16.37c0,5.299-0.549,9.193-1.647,11.685
		c-1.099,2.491-2.361,4.172-3.788,5.042c1.427,0.949,2.689,2.728,3.788,5.338c1.098,2.61,1.647,6.406,1.647,11.388v16.37
		c0,3.953,0.494,6.682,1.482,8.185c0.988,1.501,2.635,2.254,4.941,2.254h6.917v7.711h-6.67c-2.526,0-4.626-0.397-6.3-1.187
		c-1.675-0.792-3.006-1.957-3.994-3.499c-0.988-1.543-1.688-3.422-2.1-5.635c-0.412-2.215-0.618-4.786-0.618-7.711V91.593
		c0-1.186-0.124-2.39-0.371-3.617c-0.247-1.225-0.604-2.332-1.07-3.321c-0.467-0.988-1.043-1.798-1.729-2.432
		c-0.687-0.632-1.497-0.949-2.429-0.949h-3.376V73.682z"/>
	<path fill="#231F20" d="M73.886,78.901c1.482,1.583,3.156,3.579,5.023,5.991c1.866,2.413,3.719,5.002,5.559,7.77
		c1.839,2.769,3.582,5.596,5.229,8.481c1.647,2.888,2.965,5.557,3.953,8.007h-8.07c-1.043-2.45-2.334-4.962-3.871-7.532
		c-1.538-2.569-3.17-5.042-4.899-7.414c-1.729-2.373-3.459-4.546-5.188-6.524c-1.729-1.976-3.281-3.637-4.653-4.982v26.453h-6.835
		V28.604l6.835-1.661v50.178c3.019-3.796,6.039-7.571,9.058-11.329c3.019-3.755,5.736-7.651,8.153-11.685h7.988
		c-2.361,4.033-5.202,8.185-8.523,12.456C80.322,70.834,77.069,74.947,73.886,78.901z"/>
	<path fill="#231F20" d="M123.294,110.454c-2.417,0-4.42-0.475-6.012-1.423c-1.593-0.949-2.855-2.373-3.788-4.271
		c-0.934-1.898-1.593-4.25-1.976-7.059c-0.385-2.806-0.577-6.068-0.577-9.786V35.841H99.907v-8.304h17.787v60.379
		c0,2.769,0.124,5.022,0.371,6.761c0.247,1.74,0.631,3.144,1.153,4.211c0.521,1.067,1.166,1.8,1.936,2.194
		c0.768,0.396,1.674,0.593,2.717,0.593c1.592,0,3.074-0.275,4.447-0.83c1.372-0.553,2.442-1.146,3.211-1.779l0.988,8.304
		c-0.329,0.237-0.796,0.534-1.4,0.89c-0.604,0.355-1.317,0.693-2.141,1.008c-0.823,0.315-1.716,0.594-2.676,0.831
		C125.339,110.336,124.336,110.454,123.294,110.454z"/>
	<path fill="#231F20" d="M156.975,52.804c2.854,0,5.256,0.515,7.206,1.542c1.948,1.029,3.527,2.452,4.735,4.271
		c1.207,1.82,2.059,4.033,2.553,6.643s0.741,5.457,0.741,8.541v34.4c-1.593,0.396-3.693,0.871-6.3,1.424
		c-2.608,0.552-5.285,0.83-8.029,0.83c-2.087,0-4.118-0.258-6.094-0.771c-1.977-0.516-3.734-1.424-5.271-2.729
		c-1.538-1.305-2.773-3.103-3.706-5.397c-0.934-2.293-1.4-5.22-1.4-8.778c0-3.162,0.48-5.831,1.441-8.006
		c0.96-2.174,2.195-3.933,3.706-5.279c1.509-1.344,3.239-2.313,5.188-2.906c1.948-0.593,3.912-0.89,5.888-0.89
		c2.689,0,5.324,0.436,7.905,1.305v-2.729c0-1.661-0.124-3.262-0.371-4.804c-0.247-1.542-0.714-2.945-1.4-4.211
		c-0.687-1.264-1.62-2.272-2.8-3.025c-1.181-0.75-2.705-1.127-4.57-1.127c-2.361,0-4.42,0.237-6.176,0.712
		c-1.757,0.474-3.102,0.949-4.035,1.423l-0.823-8.066c0.933-0.632,2.483-1.186,4.653-1.661
		C152.185,53.041,154.504,52.804,156.975,52.804z M157.634,102.15c1.701,0,3.224-0.077,4.57-0.237
		c1.344-0.157,2.456-0.355,3.335-0.593v-16.37c-0.879-0.395-1.935-0.712-3.17-0.949c-1.235-0.237-2.54-0.356-3.912-0.356
		c-1.264,0-2.499,0.139-3.706,0.415c-1.208,0.278-2.279,0.771-3.211,1.483c-0.935,0.711-1.703,1.642-2.306,2.788
		c-0.604,1.147-0.906,2.59-0.906,4.33c0,3.559,0.836,6.031,2.512,7.414C152.514,101.459,154.778,102.15,157.634,102.15z"/>
	<path fill="#231F20" d="M181.186,55.651c3.294-1.818,6.395-2.729,9.305-2.729c1.592,0,3.088,0.337,4.488,1.008
		c1.4,0.673,2.594,1.72,3.583,3.144c2.359-2.767,4.886-4.152,7.576-4.152c1.317,0,2.565,0.356,3.746,1.068
		c1.181,0.711,2.224,1.779,3.13,3.203c0.905,1.423,1.633,3.203,2.182,5.338s0.824,4.626,0.824,7.474v39.145h-6.177V69.767
		c0-2.847-0.439-5.021-1.317-6.524c-0.879-1.501-1.977-2.254-3.294-2.254c-0.658,0-1.346,0.237-2.059,0.712
		c-0.714,0.474-1.373,1.227-1.977,2.254c0.33,1.82,0.494,3.836,0.494,6.05v17.912h-6.176V69.886c0-2.768-0.303-4.941-0.906-6.524
		c-0.605-1.581-1.785-2.373-3.541-2.373c-1.099,0-2.334,0.356-3.706,1.067v47.093h-6.176V55.651z"/>
	<path fill="#231F20" d="M239.323,52.804c2.854,0,5.257,0.515,7.206,1.542c1.947,1.029,3.526,2.452,4.734,4.271
		c1.207,1.82,2.059,4.033,2.553,6.643s0.741,5.457,0.741,8.541v34.4c-1.593,0.396-3.692,0.871-6.3,1.424
		c-2.607,0.552-5.284,0.83-8.028,0.83c-2.087,0-4.117-0.258-6.094-0.771c-1.977-0.516-3.734-1.424-5.271-2.729
		c-1.538-1.305-2.772-3.103-3.706-5.397c-0.934-2.293-1.399-5.22-1.399-8.778c0-3.162,0.479-5.831,1.441-8.006
		c0.959-2.174,2.194-3.933,3.705-5.279c1.51-1.344,3.238-2.313,5.188-2.906c1.947-0.593,3.911-0.89,5.888-0.89
		c2.689,0,5.324,0.436,7.905,1.305v-2.729c0-1.661-0.123-3.262-0.37-4.804c-0.247-1.542-0.715-2.945-1.4-4.211
		c-0.688-1.264-1.62-2.272-2.8-3.025c-1.182-0.75-2.705-1.127-4.57-1.127c-2.361,0-4.42,0.237-6.176,0.712
		c-1.758,0.474-3.103,0.949-4.035,1.423l-0.824-8.066c0.934-0.632,2.483-1.186,4.653-1.661
		C234.533,53.041,236.852,52.804,239.323,52.804z M239.982,102.15c1.701,0,3.225-0.077,4.57-0.237
		c1.345-0.157,2.456-0.355,3.335-0.593v-16.37c-0.879-0.395-1.936-0.712-3.171-0.949c-1.234-0.237-2.539-0.356-3.911-0.356
		c-1.264,0-2.499,0.139-3.706,0.415c-1.208,0.278-2.278,0.771-3.211,1.483c-0.935,0.711-1.702,1.642-2.306,2.788
		c-0.605,1.147-0.906,2.59-0.906,4.33c0,3.559,0.837,6.031,2.512,7.414C234.862,101.459,237.126,102.15,239.982,102.15z"/>
	<path fill="#231F20" d="M268.969,109.149V57.074c5.6-2.767,11.253-4.152,16.964-4.152c1.756,0,3.43,0.1,5.022,0.296
		c1.592,0.199,3.349,0.614,5.271,1.246l-1.235,8.66c-1.757-0.712-3.308-1.166-4.652-1.364c-1.346-0.196-2.814-0.296-4.405-0.296
		c-3.35,0-6.753,0.673-10.212,2.017v45.669H268.969z"/>
	<path fill="#231F20" d="M320.93,78.901c1.482,1.583,3.156,3.579,5.023,5.991c1.866,2.413,3.719,5.002,5.559,7.77
		c1.839,2.769,3.582,5.596,5.229,8.481c1.646,2.888,2.964,5.557,3.952,8.007h-8.07c-1.043-2.45-2.334-4.962-3.87-7.532
		c-1.537-2.569-3.17-5.042-4.899-7.414c-1.729-2.373-3.459-4.546-5.188-6.524c-1.729-1.976-3.28-3.637-4.652-4.982v26.453h-6.835
		V28.604l6.835-1.661v50.178c3.019-3.796,6.038-7.571,9.059-11.329c3.019-3.755,5.735-7.651,8.152-11.685h7.987
		c-2.36,4.033-5.202,8.185-8.522,12.456C327.367,70.834,324.114,74.947,320.93,78.901z"/>
	<path fill="#231F20" d="M362.846,52.804c2.854,0,5.257,0.515,7.206,1.542c1.947,1.029,3.526,2.452,4.734,4.271
		c1.207,1.82,2.059,4.033,2.553,6.643s0.741,5.457,0.741,8.541v34.4c-1.593,0.396-3.692,0.871-6.3,1.424
		c-2.607,0.552-5.284,0.83-8.028,0.83c-2.087,0-4.117-0.258-6.094-0.771c-1.977-0.516-3.734-1.424-5.271-2.729
		c-1.538-1.305-2.772-3.103-3.706-5.397c-0.934-2.293-1.399-5.22-1.399-8.778c0-3.162,0.479-5.831,1.441-8.006
		c0.959-2.174,2.194-3.933,3.705-5.279c1.51-1.344,3.238-2.313,5.188-2.906c1.947-0.593,3.911-0.89,5.888-0.89
		c2.689,0,5.324,0.436,7.905,1.305v-2.729c0-1.661-0.123-3.262-0.37-4.804c-0.247-1.542-0.715-2.945-1.4-4.211
		c-0.688-1.264-1.62-2.272-2.8-3.025c-1.182-0.75-2.705-1.127-4.57-1.127c-2.361,0-4.42,0.237-6.176,0.712
		c-1.758,0.474-3.103,0.949-4.035,1.423l-0.824-8.066c0.934-0.632,2.483-1.186,4.653-1.661
		C358.056,53.041,360.375,52.804,362.846,52.804z M363.505,102.15c1.701,0,3.225-0.077,4.57-0.237
		c1.345-0.157,2.456-0.355,3.335-0.593v-16.37c-0.879-0.395-1.936-0.712-3.171-0.949c-1.234-0.237-2.539-0.356-3.911-0.356
		c-1.264,0-2.499,0.139-3.706,0.415c-1.208,0.278-2.278,0.771-3.211,1.483c-0.935,0.711-1.702,1.642-2.306,2.788
		c-0.605,1.147-0.906,2.59-0.906,4.33c0,3.559,0.837,6.031,2.512,7.414C358.385,101.459,360.65,102.15,363.505,102.15z"/>
	<path fill="#231F20" d="M418.349,81.273h-3.294c-0.935,0-1.744,0.296-2.43,0.89c-0.687,0.593-1.264,1.385-1.729,2.373
		c-0.467,0.99-0.823,2.096-1.07,3.321c-0.247,1.227-0.37,2.473-0.37,3.736v19.099c0,2.925-0.206,5.496-0.618,7.711
		c-0.411,2.213-1.126,4.092-2.141,5.635c-1.017,1.542-2.361,2.707-4.035,3.499c-1.676,0.789-3.775,1.187-6.3,1.187h-6.67v-7.711
		h6.999c2.306,0,3.938-0.753,4.9-2.254c0.96-1.503,1.44-4.231,1.44-8.185v-16.37c0-5.297,0.549-9.193,1.647-11.684
		c1.098-2.491,2.359-4.17,3.788-5.042c-1.429-0.949-2.69-2.729-3.788-5.338c-1.099-2.609-1.647-6.405-1.647-11.388v-16.37
		c0-3.953-0.494-6.682-1.482-8.185c-0.987-1.501-2.635-2.253-4.94-2.253h-6.917v-7.711h6.67c2.524,0,4.624,0.397,6.3,1.187
		c1.674,0.792,3.019,1.957,4.035,3.5c1.015,1.542,1.729,3.421,2.141,5.634c0.412,2.215,0.618,4.786,0.618,7.71v19.099
		c0,1.186,0.109,2.393,0.329,3.618c0.219,1.227,0.563,2.333,1.029,3.321c0.466,0.99,1.042,1.8,1.729,2.432
		c0.686,0.634,1.495,0.949,2.429,0.949h3.377V81.273z"/>
</g>
</svg>
