<svg height='100px' width='100px'  fill="#000000" xmlns="http://www.w3.org/2000/svg" xmlns:xlink="http://www.w3.org/1999/xlink" version="1.1" x="0px" y="0px" viewBox="0 0 64 64" style="enable-background:new 0 0 64 64;" xml:space="preserve"><path d="M53.7,47.2c-0.5-3.6-3.1-6.6-6.6-7.5l-9.2-2.4l-0.3-2.2l9.9,2.6C46.9,30.8,46,20.2,46,17C46,6.7,37.8,2,32,2S18,6.7,18,17  c0,3.2-0.9,13.8-1.5,20.7l9.9-2.6l-0.3,2.2l-9.2,2.4c-3.5,0.9-6.1,3.9-6.6,7.5L8.3,62h47.5L53.7,47.2z M24,21v-4  c5.8-0.2,10-2.4,11.7-3.5c0.7,1,2.1,2.6,4.3,3.3V21c0,3.5-1.5,6.8-4.2,9.1L34.8,31c-0.7,0.6-1.6,1-2.6,1h-0.3c-1,0-1.9-0.3-2.6-1  l-1.1-0.9C25.5,27.8,24,24.5,24,21z M28.1,37.5l0.6-4.4c0.9,0.6,2,0.9,3.1,0.9h0.3c1.1,0,2.2-0.3,3.1-0.9l0.6,4.4  C33.3,39.5,30.7,39.5,28.1,37.5z M41,48h-1c-0.6,0-1,0.4-1,1v1.8c0,0.8-0.3,1.6-0.9,2.1L38,53l0.1,0.1c0.6,0.6,0.9,1.3,0.9,2.1V57  c0,0.6,0.4,1,1,1h1v2h-1c-1.7,0-3-1.3-3-3v-2c0-0.6-0.4-1-1-1h-1v-2h1c0.6,0,1-0.4,1-1v-2c0-1.7,1.3-3,3-3h1V48z M49,54h-1  c-0.6,0-1,0.4-1,1v2c0,1.7-1.3,3-3,3h-1v-2h1c0.6,0,1-0.4,1-1v-1.8c0-0.8,0.3-1.6,0.9-2.1L46,53l-0.1-0.1c-0.6-0.6-0.9-1.3-0.9-2.1  V49c0-0.6-0.4-1-1-1h-1v-2h1c1.7,0,3,1.3,3,3v2c0,0.6,0.4,1,1,1h1V54z"></path></svg>