<svg xmlns="http://www.w3.org/2000/svg" xmlns:xlink="http://www.w3.org/1999/xlink" version="1.1" x="0px" y="0px" viewBox="0 0 100 125" enable-background="new 0 0 100 100" xml:space="preserve"><g><path fill="none" stroke="#000000" stroke-width="2" stroke-linecap="round" stroke-linejoin="round" stroke-miterlimit="10" d="   M41.5,42.6c-5.7,0.8-29.4-0.6-30,0c1.1-1.1,0-30,0-30h30C41.5,12.6,39.8,40.9,41.5,42.6z"/><path fill="none" stroke="#000000" stroke-width="2" stroke-linecap="round" stroke-linejoin="round" stroke-miterlimit="10" d="   M76.5,49.6c-0.5-0.5-29.4-0.6-30,0c1.1-1.1,0-30,0-30h30C76.5,19.6,74.8,47.9,76.5,49.6z"/><path fill="none" stroke="#000000" stroke-width="2" stroke-linecap="round" stroke-linejoin="round" stroke-miterlimit="10" d="   M41.5,77.6c-0.5-0.5-29.4-0.6-30,0c1.1-1.1,0-30,0-30h30C41.5,47.6,39.8,75.9,41.5,77.6z"/><path fill="none" stroke="#000000" stroke-width="2" stroke-linecap="round" stroke-linejoin="round" stroke-miterlimit="10" d="   M88.5,87.4c-3.5-2.2-29.4-0.6-30,0c1.1-1.1,0-30,0-30h30C88.5,57.4,87,85.3,88.5,87.4z"/></g><text x="0" y="115" fill="#000000" font-size="5px" font-weight="bold" font-family="'Helvetica Neue', Helvetica, Arial-Unicode, Arial, Sans-serif">Created by Guilhem</text><text x="0" y="120" fill="#000000" font-size="5px" font-weight="bold" font-family="'Helvetica Neue', Helvetica, Arial-Unicode, Arial, Sans-serif">from the Noun Project</text></svg>